solid OpenSCAD_Model
  facet normal -0.989277 -3.24306e-17 -0.146055
    outer loop
      vertex -11 -19 22.628
      vertex -9.8 -19 14.5
      vertex -11 -20 22.628
    endloop
  endfacet
  facet normal -0.989277 -3.24306e-17 -0.146055
    outer loop
      vertex -11 -20 22.628
      vertex -9.8 -19 14.5
      vertex -9.8 -20 14.5
    endloop
  endfacet
  facet normal 0 1 -2.22045e-16
    outer loop
      vertex -11 -19 22.628
      vertex -10.351 -19 22.628
      vertex -9.8 -19 14.5
    endloop
  endfacet
  facet normal 0 1 -2.22045e-16
    outer loop
      vertex -9.8 -19 14.5
      vertex -10.351 -19 22.628
      vertex -9.617 -19 16.984
    endloop
  endfacet
  facet normal 0 1 -2.22045e-16
    outer loop
      vertex -9.8 -19 14.5
      vertex -9.617 -19 16.984
      vertex -8.864 -19 22.628
    endloop
  endfacet
  facet normal 0 1 -2.22045e-16
    outer loop
      vertex -8.462 -19 20.833
      vertex -8.864 -19 22.628
      vertex -8.055 -19 22.628
    endloop
  endfacet
  facet normal 0 1 -2.22045e-16
    outer loop
      vertex -7.321 -19 16.984
      vertex -6.588 -19 22.628
      vertex -5.92 -19 22.628
    endloop
  endfacet
  facet normal 0 1 -2.22045e-16
    outer loop
      vertex -7.321 -19 16.984
      vertex -5.92 -19 22.628
      vertex -7.12 -19 14.5
    endloop
  endfacet
  facet normal 0 1 -2.22045e-16
    outer loop
      vertex -7.321 -19 16.984
      vertex -7.12 -19 14.5
      vertex -7.523 -19 14.5
    endloop
  endfacet
  facet normal 0 1 -2.22045e-16
    outer loop
      vertex -9.8 -19 14.5
      vertex -8.864 -19 22.628
      vertex -8.462 -19 20.833
    endloop
  endfacet
  facet normal 0 1 -2.22045e-16
    outer loop
      vertex -9.396 -19 14.5
      vertex -9.406 -19 14.512
      vertex -8.462 -19 20.833
    endloop
  endfacet
  facet normal 0 1 -2.22045e-16
    outer loop
      vertex -9.406 -19 14.512
      vertex -9.401 -19 14.5
      vertex -9.8 -19 14.5
    endloop
  endfacet
  facet normal 0 1 -2.22045e-16
    outer loop
      vertex -8.462 -19 20.833
      vertex -8.055 -19 22.628
      vertex -7.321 -19 16.984
    endloop
  endfacet
  facet normal 0 1 -2.22045e-16
    outer loop
      vertex -8.462 -19 20.833
      vertex -7.321 -19 16.984
      vertex -7.523 -19 14.5
    endloop
  endfacet
  facet normal 0 1 -2.22045e-16
    outer loop
      vertex -9.406 -19 14.512
      vertex -9.8 -19 14.5
      vertex -8.462 -19 20.833
    endloop
  endfacet
  facet normal 0 2.22045e-16 1
    outer loop
      vertex -10.351 -19 22.628
      vertex -11 -19 22.628
      vertex -11 -20 22.628
    endloop
  endfacet
  facet normal 0 2.22045e-16 1
    outer loop
      vertex -10.351 -20 22.628
      vertex -10.351 -19 22.628
      vertex -11 -20 22.628
    endloop
  endfacet
  facet normal 0 -1 2.22045e-16
    outer loop
      vertex -10.351 -20 22.628
      vertex -11 -20 22.628
      vertex -9.8 -20 14.5
    endloop
  endfacet
  facet normal 0 -1 2.22045e-16
    outer loop
      vertex -8.864 -20 22.628
      vertex -9.617 -20 16.984
      vertex -8.462 -20 20.833
    endloop
  endfacet
  facet normal 0 -1 2.22045e-16
    outer loop
      vertex -9.406 -20 14.512
      vertex -10.351 -20 22.628
      vertex -9.8 -20 14.5
    endloop
  endfacet
  facet normal 0 -1 2.22045e-16
    outer loop
      vertex -9.401 -20 14.5
      vertex -9.406 -20 14.512
      vertex -9.8 -20 14.5
    endloop
  endfacet
  facet normal 0 -1 2.22045e-16
    outer loop
      vertex -6.588 -20 22.628
      vertex -7.321 -20 16.984
      vertex -5.92 -20 22.628
    endloop
  endfacet
  facet normal 0 -1 2.22045e-16
    outer loop
      vertex -9.617 -20 16.984
      vertex -10.351 -20 22.628
      vertex -9.396 -20 14.5
    endloop
  endfacet
  facet normal 0 -1 2.22045e-16
    outer loop
      vertex -7.12 -20 14.5
      vertex -8.462 -20 20.833
      vertex -7.523 -20 14.5
    endloop
  endfacet
  facet normal 0 -1 2.22045e-16
    outer loop
      vertex -7.321 -20 16.984
      vertex -8.462 -20 20.833
      vertex -7.12 -20 14.5
    endloop
  endfacet
  facet normal 0 -1 2.22045e-16
    outer loop
      vertex -7.321 -20 16.984
      vertex -8.055 -20 22.628
      vertex -8.462 -20 20.833
    endloop
  endfacet
  facet normal 0 -1 2.22045e-16
    outer loop
      vertex -5.92 -20 22.628
      vertex -7.321 -20 16.984
      vertex -7.12 -20 14.5
    endloop
  endfacet
  facet normal 0 -1 2.22045e-16
    outer loop
      vertex -8.055 -20 22.628
      vertex -8.864 -20 22.628
      vertex -8.462 -20 20.833
    endloop
  endfacet
  facet normal 0 -1 2.22045e-16
    outer loop
      vertex -8.462 -20 20.833
      vertex -9.617 -20 16.984
      vertex -9.396 -20 14.5
    endloop
  endfacet
  facet normal 0 -1 2.22045e-16
    outer loop
      vertex -9.406 -20 14.512
      vertex -9.396 -20 14.5
      vertex -10.351 -20 22.628
    endloop
  endfacet
  facet normal 0 -2.22045e-16 -1
    outer loop
      vertex -9.8 -19 14.5
      vertex -9.401 -19 14.5
      vertex -9.8 -20 14.5
    endloop
  endfacet
  facet normal 0 -2.22045e-16 -1
    outer loop
      vertex -9.8 -20 14.5
      vertex -9.401 -19 14.5
      vertex -9.401 -20 14.5
    endloop
  endfacet
  facet normal 0.923077 8.54018e-17 0.384615
    outer loop
      vertex -9.401 -19 14.5
      vertex -9.406 -19 14.512
      vertex -9.406 -20 14.512
    endloop
  endfacet
  facet normal 0.923077 8.54018e-17 0.384615
    outer loop
      vertex -9.401 -20 14.5
      vertex -9.401 -19 14.5
      vertex -9.406 -20 14.512
    endloop
  endfacet
  facet normal -0.768221 -1.42149e-16 -0.640184
    outer loop
      vertex -9.406 -19 14.512
      vertex -9.396 -19 14.5
      vertex -9.406 -20 14.512
    endloop
  endfacet
  facet normal -0.768221 -1.42149e-16 -0.640184
    outer loop
      vertex -9.406 -20 14.512
      vertex -9.396 -19 14.5
      vertex -9.396 -20 14.5
    endloop
  endfacet
  facet normal 0.989299 -3.2397e-17 -0.145903
    outer loop
      vertex -9.396 -20 14.5
      vertex -9.396 -19 14.5
      vertex -8.462 -19 20.833
    endloop
  endfacet
  facet normal 0.989299 -3.2397e-17 -0.145903
    outer loop
      vertex -8.462 -20 20.833
      vertex -9.396 -20 14.5
      vertex -8.462 -19 20.833
    endloop
  endfacet
  facet normal -0.989186 -3.25667e-17 -0.146668
    outer loop
      vertex -8.462 -19 20.833
      vertex -7.523 -19 14.5
      vertex -8.462 -20 20.833
    endloop
  endfacet
  facet normal -0.989186 -3.25667e-17 -0.146668
    outer loop
      vertex -8.462 -20 20.833
      vertex -7.523 -19 14.5
      vertex -7.523 -20 14.5
    endloop
  endfacet
  facet normal 0 -2.22045e-16 -1
    outer loop
      vertex -7.523 -19 14.5
      vertex -7.12 -19 14.5
      vertex -7.523 -20 14.5
    endloop
  endfacet
  facet normal 0 -2.22045e-16 -1
    outer loop
      vertex -7.523 -20 14.5
      vertex -7.12 -19 14.5
      vertex -7.12 -20 14.5
    endloop
  endfacet
  facet normal 0.989277 -3.24306e-17 -0.146055
    outer loop
      vertex -7.12 -20 14.5
      vertex -7.12 -19 14.5
      vertex -5.92 -19 22.628
    endloop
  endfacet
  facet normal 0.989277 -3.24306e-17 -0.146055
    outer loop
      vertex -5.92 -20 22.628
      vertex -7.12 -20 14.5
      vertex -5.92 -19 22.628
    endloop
  endfacet
  facet normal 0 2.22045e-16 1
    outer loop
      vertex -5.92 -19 22.628
      vertex -6.588 -19 22.628
      vertex -6.588 -20 22.628
    endloop
  endfacet
  facet normal 0 2.22045e-16 1
    outer loop
      vertex -5.92 -20 22.628
      vertex -5.92 -19 22.628
      vertex -6.588 -20 22.628
    endloop
  endfacet
  facet normal -0.991672 2.85973e-17 0.128791
    outer loop
      vertex -7.321 -19 16.984
      vertex -7.321 -20 16.984
      vertex -6.588 -19 22.628
    endloop
  endfacet
  facet normal -0.991672 2.85973e-17 0.128791
    outer loop
      vertex -6.588 -19 22.628
      vertex -7.321 -20 16.984
      vertex -6.588 -20 22.628
    endloop
  endfacet
  facet normal 0.991649 2.86357e-17 0.128964
    outer loop
      vertex -7.321 -19 16.984
      vertex -8.055 -19 22.628
      vertex -8.055 -20 22.628
    endloop
  endfacet
  facet normal 0.991649 2.86357e-17 0.128964
    outer loop
      vertex -7.321 -20 16.984
      vertex -7.321 -19 16.984
      vertex -8.055 -20 22.628
    endloop
  endfacet
  facet normal 0 2.22045e-16 1
    outer loop
      vertex -8.055 -19 22.628
      vertex -8.864 -19 22.628
      vertex -8.864 -20 22.628
    endloop
  endfacet
  facet normal 0 2.22045e-16 1
    outer loop
      vertex -8.055 -20 22.628
      vertex -8.055 -19 22.628
      vertex -8.864 -20 22.628
    endloop
  endfacet
  facet normal -0.991217 2.93641e-17 0.132244
    outer loop
      vertex -9.617 -19 16.984
      vertex -9.617 -20 16.984
      vertex -8.864 -19 22.628
    endloop
  endfacet
  facet normal -0.991217 2.93641e-17 0.132244
    outer loop
      vertex -8.864 -19 22.628
      vertex -9.617 -20 16.984
      vertex -8.864 -20 22.628
    endloop
  endfacet
  facet normal 0.991649 2.86357e-17 0.128964
    outer loop
      vertex -9.617 -19 16.984
      vertex -10.351 -19 22.628
      vertex -10.351 -20 22.628
    endloop
  endfacet
  facet normal 0.991649 2.86357e-17 0.128964
    outer loop
      vertex -9.617 -20 16.984
      vertex -9.617 -19 16.984
      vertex -10.351 -20 22.628
    endloop
  endfacet
  facet normal -0.992331 -2.74461e-17 -0.123606
    outer loop
      vertex -5.5 -19 15.968
      vertex -5.429 -19 15.398
      vertex -5.5 -20 15.968
    endloop
  endfacet
  facet normal -0.992331 -2.74461e-17 -0.123606
    outer loop
      vertex -5.5 -20 15.968
      vertex -5.429 -19 15.398
      vertex -5.429 -20 15.398
    endloop
  endfacet
  facet normal 0 1 -2.22045e-16
    outer loop
      vertex -5.5 -19 15.968
      vertex -5.5 -19 21.161
      vertex -5.429 -19 15.398
    endloop
  endfacet
  facet normal 0 1 -2.22045e-16
    outer loop
      vertex -5.429 -19 15.398
      vertex -5.5 -19 21.161
      vertex -5.429 -19 21.731
    endloop
  endfacet
  facet normal 0 1 -2.22045e-16
    outer loop
      vertex -5.429 -19 15.398
      vertex -5.429 -19 21.731
      vertex -5.232 -19 22.199
    endloop
  endfacet
  facet normal 0 1 -2.22045e-16
    outer loop
      vertex -5.429 -19 15.398
      vertex -5.232 -19 22.199
      vertex -4.939 -19 22.515
    endloop
  endfacet
  facet normal 0 1 -2.22045e-16
    outer loop
      vertex -5.429 -19 15.398
      vertex -4.939 -19 22.515
      vertex -4.582 -19 22.628
    endloop
  endfacet
  facet normal 0 1 -2.22045e-16
    outer loop
      vertex -4.582 -19 21.409
      vertex -4.582 -19 22.628
      vertex -1.337 -19 22.628
    endloop
  endfacet
  facet normal 0 1 -2.22045e-16
    outer loop
      vertex -1.337 -19 21.409
      vertex -0.981 -19 22.515
      vertex -0.688 -19 22.199
    endloop
  endfacet
  facet normal 0 1 -2.22045e-16
    outer loop
      vertex -1.182 -19 21.161
      vertex -0.688 -19 22.199
      vertex -0.49 -19 21.731
    endloop
  endfacet
  facet normal 0 1 -2.22045e-16
    outer loop
      vertex -4.582 -19 21.409
      vertex -0.981 -19 22.515
      vertex -1.337 -19 21.409
    endloop
  endfacet
  facet normal 0 1 -2.22045e-16
    outer loop
      vertex -1.337 -19 15.72
      vertex -0.42 -19 15.968
      vertex -0.49 -19 15.398
    endloop
  endfacet
  facet normal 0 1 -2.22045e-16
    outer loop
      vertex -5.429 -19 15.398
      vertex -0.49 -19 15.398
      vertex -0.688 -19 14.929
    endloop
  endfacet
  facet normal 0 1 -2.22045e-16
    outer loop
      vertex -5.429 -19 15.398
      vertex -0.688 -19 14.929
      vertex -0.981 -19 14.613
    endloop
  endfacet
  facet normal 0 1 -2.22045e-16
    outer loop
      vertex -5.429 -19 15.398
      vertex -0.981 -19 14.613
      vertex -1.337 -19 14.5
    endloop
  endfacet
  facet normal 0 1 -2.22045e-16
    outer loop
      vertex -5.429 -19 15.398
      vertex -1.337 -19 14.5
      vertex -4.582 -19 14.5
    endloop
  endfacet
  facet normal 0 1 -2.22045e-16
    outer loop
      vertex -5.429 -19 15.398
      vertex -4.582 -19 14.5
      vertex -4.939 -19 14.613
    endloop
  endfacet
  facet normal 0 1 -2.22045e-16
    outer loop
      vertex -5.429 -19 15.398
      vertex -4.939 -19 14.613
      vertex -5.232 -19 14.929
    endloop
  endfacet
  facet normal 0 1 -2.22045e-16
    outer loop
      vertex -5.429 -19 15.398
      vertex -4.582 -19 22.628
      vertex -4.738 -19 21.161
    endloop
  endfacet
  facet normal 0 1 -2.22045e-16
    outer loop
      vertex -1.337 -19 15.72
      vertex -5.429 -19 15.398
      vertex -4.582 -19 15.72
    endloop
  endfacet
  facet normal 0 1 -2.22045e-16
    outer loop
      vertex -1.182 -19 15.968
      vertex -0.42 -19 21.161
      vertex -0.42 -19 15.968
    endloop
  endfacet
  facet normal 0 1 -2.22045e-16
    outer loop
      vertex -5.429 -19 15.398
      vertex -4.738 -19 15.968
      vertex -4.692 -19 15.793
    endloop
  endfacet
  facet normal 0 1 -2.22045e-16
    outer loop
      vertex -5.429 -19 15.398
      vertex -4.692 -19 15.793
      vertex -4.582 -19 15.72
    endloop
  endfacet
  facet normal 0 1 -2.22045e-16
    outer loop
      vertex -1.227 -19 15.793
      vertex -0.42 -19 15.968
      vertex -1.337 -19 15.72
    endloop
  endfacet
  facet normal 0 1 -2.22045e-16
    outer loop
      vertex -5.429 -19 15.398
      vertex -1.337 -19 15.72
      vertex -0.49 -19 15.398
    endloop
  endfacet
  facet normal 0 1 -2.22045e-16
    outer loop
      vertex -1.182 -19 15.968
      vertex -0.42 -19 15.968
      vertex -1.227 -19 15.793
    endloop
  endfacet
  facet normal 0 1 -2.22045e-16
    outer loop
      vertex -1.182 -19 21.161
      vertex -0.42 -19 21.161
      vertex -1.182 -19 15.968
    endloop
  endfacet
  facet normal 0 1 -2.22045e-16
    outer loop
      vertex -1.227 -19 21.336
      vertex -0.688 -19 22.199
      vertex -1.182 -19 21.161
    endloop
  endfacet
  facet normal 0 1 -2.22045e-16
    outer loop
      vertex -4.692 -19 21.336
      vertex -4.582 -19 22.628
      vertex -4.582 -19 21.409
    endloop
  endfacet
  facet normal 0 1 -2.22045e-16
    outer loop
      vertex -4.738 -19 21.161
      vertex -4.582 -19 22.628
      vertex -4.692 -19 21.336
    endloop
  endfacet
  facet normal 0 1 -2.22045e-16
    outer loop
      vertex -4.738 -19 15.968
      vertex -5.429 -19 15.398
      vertex -4.738 -19 21.161
    endloop
  endfacet
  facet normal 0 1 -2.22045e-16
    outer loop
      vertex -1.337 -19 21.409
      vertex -0.688 -19 22.199
      vertex -1.227 -19 21.336
    endloop
  endfacet
  facet normal 0 1 -2.22045e-16
    outer loop
      vertex -1.182 -19 21.161
      vertex -0.49 -19 21.731
      vertex -0.42 -19 21.161
    endloop
  endfacet
  facet normal 0 1 -2.22045e-16
    outer loop
      vertex -4.582 -19 21.409
      vertex -1.337 -19 22.628
      vertex -0.981 -19 22.515
    endloop
  endfacet
  facet normal -1 0 0
    outer loop
      vertex -5.5 -19 15.968
      vertex -5.5 -20 15.968
      vertex -5.5 -19 21.161
    endloop
  endfacet
  facet normal -1 0 0
    outer loop
      vertex -5.5 -19 21.161
      vertex -5.5 -20 15.968
      vertex -5.5 -20 21.161
    endloop
  endfacet
  facet normal 0 -1 2.22045e-16
    outer loop
      vertex -5.5 -20 21.161
      vertex -5.5 -20 15.968
      vertex -5.429 -20 15.398
    endloop
  endfacet
  facet normal 0 -1 2.22045e-16
    outer loop
      vertex -4.939 -20 14.613
      vertex -5.5 -20 21.161
      vertex -5.232 -20 14.929
    endloop
  endfacet
  facet normal 0 -1 2.22045e-16
    outer loop
      vertex -5.232 -20 14.929
      vertex -5.5 -20 21.161
      vertex -5.429 -20 15.398
    endloop
  endfacet
  facet normal 0 -1 2.22045e-16
    outer loop
      vertex -4.582 -20 14.5
      vertex -5.5 -20 21.161
      vertex -4.939 -20 14.613
    endloop
  endfacet
  facet normal 0 -1 2.22045e-16
    outer loop
      vertex -4.738 -20 15.968
      vertex -5.5 -20 21.161
      vertex -4.582 -20 14.5
    endloop
  endfacet
  facet normal 0 -1 2.22045e-16
    outer loop
      vertex -4.582 -20 21.409
      vertex -1.337 -20 21.409
      vertex -0.49 -20 21.731
    endloop
  endfacet
  facet normal 0 -1 2.22045e-16
    outer loop
      vertex -1.182 -20 21.161
      vertex -0.49 -20 15.398
      vertex -0.42 -20 15.968
    endloop
  endfacet
  facet normal 0 -1 2.22045e-16
    outer loop
      vertex -0.42 -20 21.161
      vertex -1.182 -20 21.161
      vertex -0.42 -20 15.968
    endloop
  endfacet
  facet normal 0 -1 2.22045e-16
    outer loop
      vertex -1.182 -20 21.161
      vertex -1.182 -20 15.968
      vertex -0.49 -20 15.398
    endloop
  endfacet
  facet normal 0 -1 2.22045e-16
    outer loop
      vertex -1.337 -20 22.628
      vertex -5.5 -20 21.161
      vertex -0.981 -20 22.515
    endloop
  endfacet
  facet normal 0 -1 2.22045e-16
    outer loop
      vertex -4.582 -20 22.628
      vertex -5.5 -20 21.161
      vertex -1.337 -20 22.628
    endloop
  endfacet
  facet normal 0 -1 2.22045e-16
    outer loop
      vertex -4.939 -20 22.515
      vertex -5.5 -20 21.161
      vertex -4.582 -20 22.628
    endloop
  endfacet
  facet normal 0 -1 2.22045e-16
    outer loop
      vertex -5.232 -20 22.199
      vertex -5.5 -20 21.161
      vertex -4.939 -20 22.515
    endloop
  endfacet
  facet normal 0 -1 2.22045e-16
    outer loop
      vertex -5.429 -20 21.731
      vertex -5.5 -20 21.161
      vertex -5.232 -20 22.199
    endloop
  endfacet
  facet normal 0 -1 2.22045e-16
    outer loop
      vertex -4.692 -20 15.793
      vertex -4.738 -20 15.968
      vertex -4.582 -20 14.5
    endloop
  endfacet
  facet normal 0 -1 2.22045e-16
    outer loop
      vertex -1.337 -20 15.72
      vertex -1.337 -20 14.5
      vertex -0.981 -20 14.613
    endloop
  endfacet
  facet normal 0 -1 2.22045e-16
    outer loop
      vertex -4.582 -20 21.409
      vertex -0.688 -20 22.199
      vertex -0.981 -20 22.515
    endloop
  endfacet
  facet normal 0 -1 2.22045e-16
    outer loop
      vertex -1.337 -20 15.72
      vertex -4.582 -20 15.72
      vertex -1.337 -20 14.5
    endloop
  endfacet
  facet normal 0 -1 2.22045e-16
    outer loop
      vertex -4.582 -20 21.409
      vertex -5.5 -20 21.161
      vertex -4.692 -20 21.336
    endloop
  endfacet
  facet normal 0 -1 2.22045e-16
    outer loop
      vertex -0.981 -20 22.515
      vertex -5.5 -20 21.161
      vertex -4.582 -20 21.409
    endloop
  endfacet
  facet normal 0 -1 2.22045e-16
    outer loop
      vertex -0.49 -20 21.731
      vertex -1.337 -20 21.409
      vertex -0.42 -20 21.161
    endloop
  endfacet
  facet normal 0 -1 2.22045e-16
    outer loop
      vertex -1.337 -20 21.409
      vertex -1.227 -20 21.336
      vertex -0.42 -20 21.161
    endloop
  endfacet
  facet normal 0 -1 2.22045e-16
    outer loop
      vertex -1.227 -20 21.336
      vertex -1.182 -20 21.161
      vertex -0.42 -20 21.161
    endloop
  endfacet
  facet normal 0 -1 2.22045e-16
    outer loop
      vertex -0.49 -20 15.398
      vertex -1.182 -20 15.968
      vertex -0.688 -20 14.929
    endloop
  endfacet
  facet normal 0 -1 2.22045e-16
    outer loop
      vertex -4.738 -20 21.161
      vertex -4.692 -20 21.336
      vertex -5.5 -20 21.161
    endloop
  endfacet
  facet normal 0 -1 2.22045e-16
    outer loop
      vertex -1.182 -20 15.968
      vertex -1.227 -20 15.793
      vertex -0.688 -20 14.929
    endloop
  endfacet
  facet normal 0 -1 2.22045e-16
    outer loop
      vertex -4.582 -20 21.409
      vertex -0.49 -20 21.731
      vertex -0.688 -20 22.199
    endloop
  endfacet
  facet normal 0 -1 2.22045e-16
    outer loop
      vertex -0.688 -20 14.929
      vertex -1.337 -20 15.72
      vertex -0.981 -20 14.613
    endloop
  endfacet
  facet normal 0 -1 2.22045e-16
    outer loop
      vertex -1.337 -20 14.5
      vertex -4.582 -20 15.72
      vertex -4.582 -20 14.5
    endloop
  endfacet
  facet normal 0 -1 2.22045e-16
    outer loop
      vertex -4.582 -20 15.72
      vertex -4.692 -20 15.793
      vertex -4.582 -20 14.5
    endloop
  endfacet
  facet normal 0 -1 2.22045e-16
    outer loop
      vertex -1.227 -20 15.793
      vertex -1.337 -20 15.72
      vertex -0.688 -20 14.929
    endloop
  endfacet
  facet normal 0 -1 2.22045e-16
    outer loop
      vertex -4.738 -20 15.968
      vertex -4.738 -20 21.161
      vertex -5.5 -20 21.161
    endloop
  endfacet
  facet normal -0.921968 -8.59903e-17 -0.387266
    outer loop
      vertex -5.429 -19 15.398
      vertex -5.232 -19 14.929
      vertex -5.429 -20 15.398
    endloop
  endfacet
  facet normal -0.921968 -8.59903e-17 -0.387266
    outer loop
      vertex -5.429 -20 15.398
      vertex -5.232 -19 14.929
      vertex -5.232 -20 14.929
    endloop
  endfacet
  facet normal -0.733289 -1.50972e-16 -0.679917
    outer loop
      vertex -5.232 -19 14.929
      vertex -4.939 -19 14.613
      vertex -5.232 -20 14.929
    endloop
  endfacet
  facet normal -0.733289 -1.50972e-16 -0.679917
    outer loop
      vertex -5.232 -20 14.929
      vertex -4.939 -19 14.613
      vertex -4.939 -20 14.613
    endloop
  endfacet
  facet normal -0.30177 -2.11693e-16 -0.953381
    outer loop
      vertex -4.939 -19 14.613
      vertex -4.582 -19 14.5
      vertex -4.939 -20 14.613
    endloop
  endfacet
  facet normal -0.30177 -2.11693e-16 -0.953381
    outer loop
      vertex -4.939 -20 14.613
      vertex -4.582 -19 14.5
      vertex -4.582 -20 14.5
    endloop
  endfacet
  facet normal 0 -2.22045e-16 -1
    outer loop
      vertex -4.582 -19 14.5
      vertex -1.337 -19 14.5
      vertex -4.582 -20 14.5
    endloop
  endfacet
  facet normal 0 -2.22045e-16 -1
    outer loop
      vertex -4.582 -20 14.5
      vertex -1.337 -19 14.5
      vertex -1.337 -20 14.5
    endloop
  endfacet
  facet normal 0.302541 -2.11639e-16 -0.953137
    outer loop
      vertex -1.337 -19 14.5
      vertex -0.981 -19 14.613
      vertex -1.337 -20 14.5
    endloop
  endfacet
  facet normal 0.302541 -2.11639e-16 -0.953137
    outer loop
      vertex -1.337 -20 14.5
      vertex -0.981 -19 14.613
      vertex -0.981 -20 14.613
    endloop
  endfacet
  facet normal 0.733289 -1.50972e-16 -0.679917
    outer loop
      vertex -0.981 -20 14.613
      vertex -0.981 -19 14.613
      vertex -0.688 -19 14.929
    endloop
  endfacet
  facet normal 0.733289 -1.50972e-16 -0.679917
    outer loop
      vertex -0.688 -20 14.929
      vertex -0.981 -20 14.613
      vertex -0.688 -19 14.929
    endloop
  endfacet
  facet normal 0.921265 -8.63609e-17 -0.388935
    outer loop
      vertex -0.688 -20 14.929
      vertex -0.688 -19 14.929
      vertex -0.49 -19 15.398
    endloop
  endfacet
  facet normal 0.921265 -8.63609e-17 -0.388935
    outer loop
      vertex -0.49 -20 15.398
      vertex -0.688 -20 14.929
      vertex -0.49 -19 15.398
    endloop
  endfacet
  facet normal 0.992543 -2.70653e-17 -0.121891
    outer loop
      vertex -0.49 -20 15.398
      vertex -0.49 -19 15.398
      vertex -0.42 -19 15.968
    endloop
  endfacet
  facet normal 0.992543 -2.70653e-17 -0.121891
    outer loop
      vertex -0.42 -20 15.968
      vertex -0.49 -20 15.398
      vertex -0.42 -19 15.968
    endloop
  endfacet
  facet normal 1 0 0
    outer loop
      vertex -0.42 -20 15.968
      vertex -0.42 -19 15.968
      vertex -0.42 -19 21.161
    endloop
  endfacet
  facet normal 1 0 0
    outer loop
      vertex -0.42 -20 21.161
      vertex -0.42 -20 15.968
      vertex -0.42 -19 21.161
    endloop
  endfacet
  facet normal 0.992543 2.70653e-17 0.121891
    outer loop
      vertex -0.42 -19 21.161
      vertex -0.49 -19 21.731
      vertex -0.49 -20 21.731
    endloop
  endfacet
  facet normal 0.992543 2.70653e-17 0.121891
    outer loop
      vertex -0.42 -20 21.161
      vertex -0.42 -19 21.161
      vertex -0.49 -20 21.731
    endloop
  endfacet
  facet normal 0.920967 8.65175e-17 0.38964
    outer loop
      vertex -0.49 -19 21.731
      vertex -0.688 -19 22.199
      vertex -0.688 -20 22.199
    endloop
  endfacet
  facet normal 0.920967 8.65175e-17 0.38964
    outer loop
      vertex -0.49 -20 21.731
      vertex -0.49 -19 21.731
      vertex -0.688 -20 22.199
    endloop
  endfacet
  facet normal 0.733289 1.50972e-16 0.679917
    outer loop
      vertex -0.688 -19 22.199
      vertex -0.981 -19 22.515
      vertex -0.981 -20 22.515
    endloop
  endfacet
  facet normal 0.733289 1.50972e-16 0.679917
    outer loop
      vertex -0.688 -20 22.199
      vertex -0.688 -19 22.199
      vertex -0.981 -20 22.515
    endloop
  endfacet
  facet normal 0.302541 2.11639e-16 0.953137
    outer loop
      vertex -0.981 -19 22.515
      vertex -1.337 -19 22.628
      vertex -1.337 -20 22.628
    endloop
  endfacet
  facet normal 0.302541 2.11639e-16 0.953137
    outer loop
      vertex -0.981 -20 22.515
      vertex -0.981 -19 22.515
      vertex -1.337 -20 22.628
    endloop
  endfacet
  facet normal 0 2.22045e-16 1
    outer loop
      vertex -1.337 -19 22.628
      vertex -4.582 -19 22.628
      vertex -4.582 -20 22.628
    endloop
  endfacet
  facet normal 0 2.22045e-16 1
    outer loop
      vertex -1.337 -20 22.628
      vertex -1.337 -19 22.628
      vertex -4.582 -20 22.628
    endloop
  endfacet
  facet normal -0.30177 2.11693e-16 0.953381
    outer loop
      vertex -4.582 -19 22.628
      vertex -4.939 -19 22.515
      vertex -4.939 -20 22.515
    endloop
  endfacet
  facet normal -0.30177 2.11693e-16 0.953381
    outer loop
      vertex -4.582 -20 22.628
      vertex -4.582 -19 22.628
      vertex -4.939 -20 22.515
    endloop
  endfacet
  facet normal -0.733289 1.50972e-16 0.679917
    outer loop
      vertex -5.232 -19 22.199
      vertex -5.232 -20 22.199
      vertex -4.939 -19 22.515
    endloop
  endfacet
  facet normal -0.733289 1.50972e-16 0.679917
    outer loop
      vertex -4.939 -19 22.515
      vertex -5.232 -20 22.199
      vertex -4.939 -20 22.515
    endloop
  endfacet
  facet normal -0.921672 8.61464e-17 0.387969
    outer loop
      vertex -5.429 -19 21.731
      vertex -5.429 -20 21.731
      vertex -5.232 -19 22.199
    endloop
  endfacet
  facet normal -0.921672 8.61464e-17 0.387969
    outer loop
      vertex -5.232 -19 22.199
      vertex -5.429 -20 21.731
      vertex -5.232 -20 22.199
    endloop
  endfacet
  facet normal -0.992331 2.74461e-17 0.123606
    outer loop
      vertex -5.5 -19 21.161
      vertex -5.5 -20 21.161
      vertex -5.429 -19 21.731
    endloop
  endfacet
  facet normal -0.992331 2.74461e-17 0.123606
    outer loop
      vertex -5.429 -19 21.731
      vertex -5.5 -20 21.161
      vertex -5.429 -20 21.731
    endloop
  endfacet
  facet normal 0.967146 -5.64485e-17 -0.254221
    outer loop
      vertex -4.738 -20 21.161
      vertex -4.738 -19 21.161
      vertex -4.692 -19 21.336
    endloop
  endfacet
  facet normal 0.967146 -5.64485e-17 -0.254221
    outer loop
      vertex -4.692 -20 21.336
      vertex -4.738 -20 21.161
      vertex -4.692 -19 21.336
    endloop
  endfacet
  facet normal 1 0 0
    outer loop
      vertex -4.738 -20 15.968
      vertex -4.738 -19 15.968
      vertex -4.738 -19 21.161
    endloop
  endfacet
  facet normal 1 0 0
    outer loop
      vertex -4.738 -20 21.161
      vertex -4.738 -20 15.968
      vertex -4.738 -19 21.161
    endloop
  endfacet
  facet normal 0.552951 -1.85011e-16 -0.833214
    outer loop
      vertex -4.692 -19 21.336
      vertex -4.582 -19 21.409
      vertex -4.692 -20 21.336
    endloop
  endfacet
  facet normal 0.552951 -1.85011e-16 -0.833214
    outer loop
      vertex -4.692 -20 21.336
      vertex -4.582 -19 21.409
      vertex -4.582 -20 21.409
    endloop
  endfacet
  facet normal 0 -2.22045e-16 -1
    outer loop
      vertex -4.582 -19 21.409
      vertex -1.337 -19 21.409
      vertex -4.582 -20 21.409
    endloop
  endfacet
  facet normal 0 -2.22045e-16 -1
    outer loop
      vertex -4.582 -20 21.409
      vertex -1.337 -19 21.409
      vertex -1.337 -20 21.409
    endloop
  endfacet
  facet normal -0.552951 -1.85011e-16 -0.833214
    outer loop
      vertex -1.337 -19 21.409
      vertex -1.227 -19 21.336
      vertex -1.337 -20 21.409
    endloop
  endfacet
  facet normal -0.552951 -1.85011e-16 -0.833214
    outer loop
      vertex -1.337 -20 21.409
      vertex -1.227 -19 21.336
      vertex -1.227 -20 21.336
    endloop
  endfacet
  facet normal -0.968493 -5.52982e-17 -0.249041
    outer loop
      vertex -1.227 -19 21.336
      vertex -1.182 -19 21.161
      vertex -1.227 -20 21.336
    endloop
  endfacet
  facet normal -0.968493 -5.52982e-17 -0.249041
    outer loop
      vertex -1.227 -20 21.336
      vertex -1.182 -19 21.161
      vertex -1.182 -20 21.161
    endloop
  endfacet
  facet normal -1 0 0
    outer loop
      vertex -1.182 -19 15.968
      vertex -1.182 -20 15.968
      vertex -1.182 -19 21.161
    endloop
  endfacet
  facet normal -1 0 0
    outer loop
      vertex -1.182 -19 21.161
      vertex -1.182 -20 15.968
      vertex -1.182 -20 21.161
    endloop
  endfacet
  facet normal -0.968493 5.52982e-17 0.249041
    outer loop
      vertex -1.227 -19 15.793
      vertex -1.227 -20 15.793
      vertex -1.182 -19 15.968
    endloop
  endfacet
  facet normal -0.968493 5.52982e-17 0.249041
    outer loop
      vertex -1.182 -19 15.968
      vertex -1.227 -20 15.793
      vertex -1.182 -20 15.968
    endloop
  endfacet
  facet normal -0.552951 1.85011e-16 0.833214
    outer loop
      vertex -1.227 -19 15.793
      vertex -1.337 -19 15.72
      vertex -1.337 -20 15.72
    endloop
  endfacet
  facet normal -0.552951 1.85011e-16 0.833214
    outer loop
      vertex -1.227 -20 15.793
      vertex -1.227 -19 15.793
      vertex -1.337 -20 15.72
    endloop
  endfacet
  facet normal 0 2.22045e-16 1
    outer loop
      vertex -1.337 -19 15.72
      vertex -4.582 -19 15.72
      vertex -4.582 -20 15.72
    endloop
  endfacet
  facet normal 0 2.22045e-16 1
    outer loop
      vertex -1.337 -20 15.72
      vertex -1.337 -19 15.72
      vertex -4.582 -20 15.72
    endloop
  endfacet
  facet normal 0.552951 1.85011e-16 0.833214
    outer loop
      vertex -4.582 -19 15.72
      vertex -4.692 -19 15.793
      vertex -4.692 -20 15.793
    endloop
  endfacet
  facet normal 0.552951 1.85011e-16 0.833214
    outer loop
      vertex -4.582 -20 15.72
      vertex -4.582 -19 15.72
      vertex -4.692 -20 15.793
    endloop
  endfacet
  facet normal 0.967146 5.64485e-17 0.254221
    outer loop
      vertex -4.692 -19 15.793
      vertex -4.738 -19 15.968
      vertex -4.738 -20 15.968
    endloop
  endfacet
  facet normal 0.967146 5.64485e-17 0.254221
    outer loop
      vertex -4.692 -20 15.793
      vertex -4.692 -19 15.793
      vertex -4.738 -20 15.968
    endloop
  endfacet
  facet normal -0.989277 -3.24306e-17 -0.146055
    outer loop
      vertex 0 -19 22.628
      vertex 1.2 -19 14.5
      vertex 0 -20 22.628
    endloop
  endfacet
  facet normal -0.989277 -3.24306e-17 -0.146055
    outer loop
      vertex 0 -20 22.628
      vertex 1.2 -19 14.5
      vertex 1.2 -20 14.5
    endloop
  endfacet
  facet normal 0 1 -2.22045e-16
    outer loop
      vertex 0 -19 22.628
      vertex 0.649 -19 22.628
      vertex 1.2 -19 14.5
    endloop
  endfacet
  facet normal 0 1 -2.22045e-16
    outer loop
      vertex 1.2 -19 14.5
      vertex 0.649 -19 22.628
      vertex 1.383 -19 16.984
    endloop
  endfacet
  facet normal 0 1 -2.22045e-16
    outer loop
      vertex 1.2 -19 14.5
      vertex 1.383 -19 16.984
      vertex 2.136 -19 22.628
    endloop
  endfacet
  facet normal 0 1 -2.22045e-16
    outer loop
      vertex 2.538 -19 20.833
      vertex 2.136 -19 22.628
      vertex 2.945 -19 22.628
    endloop
  endfacet
  facet normal 0 1 -2.22045e-16
    outer loop
      vertex 3.679 -19 16.984
      vertex 4.412 -19 22.628
      vertex 5.08 -19 22.628
    endloop
  endfacet
  facet normal 0 1 -2.22045e-16
    outer loop
      vertex 3.679 -19 16.984
      vertex 5.08 -19 22.628
      vertex 3.88 -19 14.5
    endloop
  endfacet
  facet normal 0 1 -2.22045e-16
    outer loop
      vertex 3.679 -19 16.984
      vertex 3.88 -19 14.5
      vertex 3.477 -19 14.5
    endloop
  endfacet
  facet normal 0 1 -2.22045e-16
    outer loop
      vertex 1.2 -19 14.5
      vertex 2.136 -19 22.628
      vertex 2.538 -19 20.833
    endloop
  endfacet
  facet normal 0 1 -2.22045e-16
    outer loop
      vertex 1.604 -19 14.5
      vertex 1.594 -19 14.512
      vertex 2.538 -19 20.833
    endloop
  endfacet
  facet normal 0 1 -2.22045e-16
    outer loop
      vertex 1.594 -19 14.512
      vertex 1.599 -19 14.5
      vertex 1.2 -19 14.5
    endloop
  endfacet
  facet normal 0 1 -2.22045e-16
    outer loop
      vertex 2.538 -19 20.833
      vertex 2.945 -19 22.628
      vertex 3.679 -19 16.984
    endloop
  endfacet
  facet normal 0 1 -2.22045e-16
    outer loop
      vertex 2.538 -19 20.833
      vertex 3.679 -19 16.984
      vertex 3.477 -19 14.5
    endloop
  endfacet
  facet normal 0 1 -2.22045e-16
    outer loop
      vertex 1.594 -19 14.512
      vertex 1.2 -19 14.5
      vertex 2.538 -19 20.833
    endloop
  endfacet
  facet normal 0 2.22045e-16 1
    outer loop
      vertex 0.649 -19 22.628
      vertex 0 -19 22.628
      vertex 0 -20 22.628
    endloop
  endfacet
  facet normal 0 2.22045e-16 1
    outer loop
      vertex 0.649 -20 22.628
      vertex 0.649 -19 22.628
      vertex 0 -20 22.628
    endloop
  endfacet
  facet normal 0 -1 2.22045e-16
    outer loop
      vertex 0.649 -20 22.628
      vertex 0 -20 22.628
      vertex 1.2 -20 14.5
    endloop
  endfacet
  facet normal 0 -1 2.22045e-16
    outer loop
      vertex 2.136 -20 22.628
      vertex 1.383 -20 16.984
      vertex 2.538 -20 20.833
    endloop
  endfacet
  facet normal 0 -1 2.22045e-16
    outer loop
      vertex 1.594 -20 14.512
      vertex 0.649 -20 22.628
      vertex 1.2 -20 14.5
    endloop
  endfacet
  facet normal 0 -1 2.22045e-16
    outer loop
      vertex 1.599 -20 14.5
      vertex 1.594 -20 14.512
      vertex 1.2 -20 14.5
    endloop
  endfacet
  facet normal 0 -1 2.22045e-16
    outer loop
      vertex 4.412 -20 22.628
      vertex 3.679 -20 16.984
      vertex 5.08 -20 22.628
    endloop
  endfacet
  facet normal 0 -1 2.22045e-16
    outer loop
      vertex 1.383 -20 16.984
      vertex 0.649 -20 22.628
      vertex 1.604 -20 14.5
    endloop
  endfacet
  facet normal 0 -1 2.22045e-16
    outer loop
      vertex 3.88 -20 14.5
      vertex 2.538 -20 20.833
      vertex 3.477 -20 14.5
    endloop
  endfacet
  facet normal 0 -1 2.22045e-16
    outer loop
      vertex 3.679 -20 16.984
      vertex 2.538 -20 20.833
      vertex 3.88 -20 14.5
    endloop
  endfacet
  facet normal 0 -1 2.22045e-16
    outer loop
      vertex 3.679 -20 16.984
      vertex 2.945 -20 22.628
      vertex 2.538 -20 20.833
    endloop
  endfacet
  facet normal 0 -1 2.22045e-16
    outer loop
      vertex 5.08 -20 22.628
      vertex 3.679 -20 16.984
      vertex 3.88 -20 14.5
    endloop
  endfacet
  facet normal 0 -1 2.22045e-16
    outer loop
      vertex 2.945 -20 22.628
      vertex 2.136 -20 22.628
      vertex 2.538 -20 20.833
    endloop
  endfacet
  facet normal 0 -1 2.22045e-16
    outer loop
      vertex 2.538 -20 20.833
      vertex 1.383 -20 16.984
      vertex 1.604 -20 14.5
    endloop
  endfacet
  facet normal 0 -1 2.22045e-16
    outer loop
      vertex 1.594 -20 14.512
      vertex 1.604 -20 14.5
      vertex 0.649 -20 22.628
    endloop
  endfacet
  facet normal 0 -2.22045e-16 -1
    outer loop
      vertex 1.2 -19 14.5
      vertex 1.599 -19 14.5
      vertex 1.2 -20 14.5
    endloop
  endfacet
  facet normal 0 -2.22045e-16 -1
    outer loop
      vertex 1.2 -20 14.5
      vertex 1.599 -19 14.5
      vertex 1.599 -20 14.5
    endloop
  endfacet
  facet normal 0.923077 8.54018e-17 0.384615
    outer loop
      vertex 1.599 -19 14.5
      vertex 1.594 -19 14.512
      vertex 1.594 -20 14.512
    endloop
  endfacet
  facet normal 0.923077 8.54018e-17 0.384615
    outer loop
      vertex 1.599 -20 14.5
      vertex 1.599 -19 14.5
      vertex 1.594 -20 14.512
    endloop
  endfacet
  facet normal -0.768221 -1.42149e-16 -0.640184
    outer loop
      vertex 1.594 -19 14.512
      vertex 1.604 -19 14.5
      vertex 1.594 -20 14.512
    endloop
  endfacet
  facet normal -0.768221 -1.42149e-16 -0.640184
    outer loop
      vertex 1.594 -20 14.512
      vertex 1.604 -19 14.5
      vertex 1.604 -20 14.5
    endloop
  endfacet
  facet normal 0.989299 -3.2397e-17 -0.145903
    outer loop
      vertex 1.604 -20 14.5
      vertex 1.604 -19 14.5
      vertex 2.538 -19 20.833
    endloop
  endfacet
  facet normal 0.989299 -3.2397e-17 -0.145903
    outer loop
      vertex 2.538 -20 20.833
      vertex 1.604 -20 14.5
      vertex 2.538 -19 20.833
    endloop
  endfacet
  facet normal -0.989186 -3.25667e-17 -0.146668
    outer loop
      vertex 2.538 -19 20.833
      vertex 3.477 -19 14.5
      vertex 2.538 -20 20.833
    endloop
  endfacet
  facet normal -0.989186 -3.25667e-17 -0.146668
    outer loop
      vertex 2.538 -20 20.833
      vertex 3.477 -19 14.5
      vertex 3.477 -20 14.5
    endloop
  endfacet
  facet normal 0 -2.22045e-16 -1
    outer loop
      vertex 3.477 -19 14.5
      vertex 3.88 -19 14.5
      vertex 3.477 -20 14.5
    endloop
  endfacet
  facet normal 0 -2.22045e-16 -1
    outer loop
      vertex 3.477 -20 14.5
      vertex 3.88 -19 14.5
      vertex 3.88 -20 14.5
    endloop
  endfacet
  facet normal 0.989277 -3.24306e-17 -0.146055
    outer loop
      vertex 3.88 -20 14.5
      vertex 3.88 -19 14.5
      vertex 5.08 -19 22.628
    endloop
  endfacet
  facet normal 0.989277 -3.24306e-17 -0.146055
    outer loop
      vertex 5.08 -20 22.628
      vertex 3.88 -20 14.5
      vertex 5.08 -19 22.628
    endloop
  endfacet
  facet normal 0 2.22045e-16 1
    outer loop
      vertex 5.08 -19 22.628
      vertex 4.412 -19 22.628
      vertex 4.412 -20 22.628
    endloop
  endfacet
  facet normal 0 2.22045e-16 1
    outer loop
      vertex 5.08 -20 22.628
      vertex 5.08 -19 22.628
      vertex 4.412 -20 22.628
    endloop
  endfacet
  facet normal -0.991672 2.85973e-17 0.128791
    outer loop
      vertex 3.679 -19 16.984
      vertex 3.679 -20 16.984
      vertex 4.412 -19 22.628
    endloop
  endfacet
  facet normal -0.991672 2.85973e-17 0.128791
    outer loop
      vertex 4.412 -19 22.628
      vertex 3.679 -20 16.984
      vertex 4.412 -20 22.628
    endloop
  endfacet
  facet normal 0.991649 2.86357e-17 0.128964
    outer loop
      vertex 3.679 -19 16.984
      vertex 2.945 -19 22.628
      vertex 2.945 -20 22.628
    endloop
  endfacet
  facet normal 0.991649 2.86357e-17 0.128964
    outer loop
      vertex 3.679 -20 16.984
      vertex 3.679 -19 16.984
      vertex 2.945 -20 22.628
    endloop
  endfacet
  facet normal 0 2.22045e-16 1
    outer loop
      vertex 2.945 -19 22.628
      vertex 2.136 -19 22.628
      vertex 2.136 -20 22.628
    endloop
  endfacet
  facet normal 0 2.22045e-16 1
    outer loop
      vertex 2.945 -20 22.628
      vertex 2.945 -19 22.628
      vertex 2.136 -20 22.628
    endloop
  endfacet
  facet normal -0.991217 2.93641e-17 0.132244
    outer loop
      vertex 1.383 -19 16.984
      vertex 1.383 -20 16.984
      vertex 2.136 -19 22.628
    endloop
  endfacet
  facet normal -0.991217 2.93641e-17 0.132244
    outer loop
      vertex 2.136 -19 22.628
      vertex 1.383 -20 16.984
      vertex 2.136 -20 22.628
    endloop
  endfacet
  facet normal 0.991649 2.86357e-17 0.128964
    outer loop
      vertex 1.383 -19 16.984
      vertex 0.649 -19 22.628
      vertex 0.649 -20 22.628
    endloop
  endfacet
  facet normal 0.991649 2.86357e-17 0.128964
    outer loop
      vertex 1.383 -20 16.984
      vertex 1.383 -19 16.984
      vertex 0.649 -20 22.628
    endloop
  endfacet
  facet normal 0 -2.22045e-16 -1
    outer loop
      vertex 7.411 -19 14.5
      vertex 8.258 -19 14.5
      vertex 7.411 -20 14.5
    endloop
  endfacet
  facet normal 0 -2.22045e-16 -1
    outer loop
      vertex 7.411 -20 14.5
      vertex 8.258 -19 14.5
      vertex 8.258 -20 14.5
    endloop
  endfacet
  facet normal 0 1 -2.22045e-16
    outer loop
      vertex 7.411 -19 14.5
      vertex 7.411 -19 15.72
      vertex 8.258 -19 14.5
    endloop
  endfacet
  facet normal 0 1 -2.22045e-16
    outer loop
      vertex 8.258 -19 14.5
      vertex 7.411 -19 15.72
      vertex 8.258 -19 15.72
    endloop
  endfacet
  facet normal -1 0 0
    outer loop
      vertex 7.411 -19 14.5
      vertex 7.411 -20 14.5
      vertex 7.411 -19 15.72
    endloop
  endfacet
  facet normal -1 0 0
    outer loop
      vertex 7.411 -19 15.72
      vertex 7.411 -20 14.5
      vertex 7.411 -20 15.72
    endloop
  endfacet
  facet normal 0 -1 2.22045e-16
    outer loop
      vertex 7.411 -20 15.72
      vertex 7.411 -20 14.5
      vertex 8.258 -20 14.5
    endloop
  endfacet
  facet normal 0 -1 2.22045e-16
    outer loop
      vertex 8.258 -20 15.72
      vertex 7.411 -20 15.72
      vertex 8.258 -20 14.5
    endloop
  endfacet
  facet normal 1 0 0
    outer loop
      vertex 8.258 -20 14.5
      vertex 8.258 -19 14.5
      vertex 8.258 -19 15.72
    endloop
  endfacet
  facet normal 1 0 0
    outer loop
      vertex 8.258 -20 15.72
      vertex 8.258 -20 14.5
      vertex 8.258 -19 15.72
    endloop
  endfacet
  facet normal 0 2.22045e-16 1
    outer loop
      vertex 8.258 -19 15.72
      vertex 7.411 -19 15.72
      vertex 7.411 -20 15.72
    endloop
  endfacet
  facet normal 0 2.22045e-16 1
    outer loop
      vertex 8.258 -20 15.72
      vertex 8.258 -19 15.72
      vertex 7.411 -20 15.72
    endloop
  endfacet
  facet normal 0 -2.22045e-16 -1
    outer loop
      vertex 7.411 -19 16.758
      vertex 8.258 -19 16.758
      vertex 7.411 -20 16.758
    endloop
  endfacet
  facet normal 0 -2.22045e-16 -1
    outer loop
      vertex 7.411 -20 16.758
      vertex 8.258 -19 16.758
      vertex 8.258 -20 16.758
    endloop
  endfacet
  facet normal 0 1 -2.22045e-16
    outer loop
      vertex 7.411 -19 16.758
      vertex 7.411 -19 22.628
      vertex 8.258 -19 16.758
    endloop
  endfacet
  facet normal 0 1 -2.22045e-16
    outer loop
      vertex 8.258 -19 16.758
      vertex 7.411 -19 22.628
      vertex 8.258 -19 22.628
    endloop
  endfacet
  facet normal -1 0 0
    outer loop
      vertex 7.411 -19 16.758
      vertex 7.411 -20 16.758
      vertex 7.411 -19 22.628
    endloop
  endfacet
  facet normal -1 0 0
    outer loop
      vertex 7.411 -19 22.628
      vertex 7.411 -20 16.758
      vertex 7.411 -20 22.628
    endloop
  endfacet
  facet normal 0 -1 2.22045e-16
    outer loop
      vertex 7.411 -20 22.628
      vertex 7.411 -20 16.758
      vertex 8.258 -20 16.758
    endloop
  endfacet
  facet normal 0 -1 2.22045e-16
    outer loop
      vertex 8.258 -20 22.628
      vertex 7.411 -20 22.628
      vertex 8.258 -20 16.758
    endloop
  endfacet
  facet normal 1 0 0
    outer loop
      vertex 8.258 -20 16.758
      vertex 8.258 -19 16.758
      vertex 8.258 -19 22.628
    endloop
  endfacet
  facet normal 1 0 0
    outer loop
      vertex 8.258 -20 22.628
      vertex 8.258 -20 16.758
      vertex 8.258 -19 22.628
    endloop
  endfacet
  facet normal 0 2.22045e-16 1
    outer loop
      vertex 8.258 -19 22.628
      vertex 7.411 -19 22.628
      vertex 7.411 -20 22.628
    endloop
  endfacet
  facet normal 0 2.22045e-16 1
    outer loop
      vertex 8.258 -20 22.628
      vertex 8.258 -19 22.628
      vertex 7.411 -20 22.628
    endloop
  endfacet
endsolid OpenSCAD_Model
