solid com.sketchup.SketchUp.2020
facet normal 0.8660253882408142 -0.5 0
  outer loop
    vertex 196.4600067138672 80.01000213623047 0
    vertex 160.4600067138672 17.65617179870605 10
    vertex 160.4600067138672 17.65617179870605 0
  endloop
endfacet
facet normal 0.8660253882408142 -0.5 0
  outer loop
    vertex 160.4600067138672 17.65617179870605 10
    vertex 196.4600067138672 80.01000213623047 0
    vertex 196.4600067138672 80.01000213623047 10
  endloop
endfacet
facet normal -6.266592206968465e-16 1 0
  outer loop
    vertex 88.45999908447266 142.3638305664062 10
    vertex 160.4600067138672 142.3638305664062 0
    vertex 88.45999908447266 142.3638305664062 0
  endloop
endfacet
facet normal -6.266592206968465e-16 1 0
  outer loop
    vertex 160.4600067138672 142.3638305664062 0
    vertex 88.45999908447266 142.3638305664062 10
    vertex 160.4600067138672 142.3638305664062 10
  endloop
endfacet
facet normal -0.8660253882408142 -0.5 -0
  outer loop
    vertex 52.45999908447266 80.01000213623047 10
    vertex 88.45999908447266 17.65617179870605 0
    vertex 88.45999908447266 17.65617179870605 10
  endloop
endfacet
facet normal -0.8660253882408142 -0.5 -0
  outer loop
    vertex 88.45999908447266 17.65617179870605 0
    vertex 52.45999908447266 80.01000213623047 10
    vertex 52.45999908447266 80.01000213623047 0
  endloop
endfacet
facet normal 1.566648051742116e-16 -1 0
  outer loop
    vertex 160.4600067138672 17.65617179870605 10
    vertex 88.45999908447266 17.65617179870605 0
    vertex 160.4600067138672 17.65617179870605 0
  endloop
endfacet
facet normal 1.566648051742116e-16 -1 0
  outer loop
    vertex 88.45999908447266 17.65617179870605 0
    vertex 160.4600067138672 17.65617179870605 10
    vertex 88.45999908447266 17.65617179870605 10
  endloop
endfacet
facet normal 0.8660253882408142 0.5 0
  outer loop
    vertex 160.4600067138672 142.3638305664062 0
    vertex 196.4600067138672 80.01000213623047 10
    vertex 196.4600067138672 80.01000213623047 0
  endloop
endfacet
facet normal 0.8660253882408142 0.5 0
  outer loop
    vertex 196.4600067138672 80.01000213623047 10
    vertex 160.4600067138672 142.3638305664062 0
    vertex 160.4600067138672 142.3638305664062 10
  endloop
endfacet
facet normal -0.8660253882408142 0.5 0
  outer loop
    vertex 88.45999908447266 142.3638305664062 10
    vertex 52.45999908447266 80.01000213623047 0
    vertex 52.45999908447266 80.01000213623047 10
  endloop
endfacet
facet normal -0.8660253882408142 0.5 0
  outer loop
    vertex 52.45999908447266 80.01000213623047 0
    vertex 88.45999908447266 142.3638305664062 10
    vertex 88.45999908447266 142.3638305664062 0
  endloop
endfacet
facet normal 0 0 -1
  outer loop
    vertex 88.45999908447266 142.3638305664062 0
    vertex 58.23350143432617 80.01000213623047 -1.409983220098125e-15
    vertex 52.45999908447266 80.01000213623047 0
  endloop
endfacet
facet normal 0 0 -1
  outer loop
    vertex 58.23350143432617 80.01000213623047 -1.409983220098125e-15
    vertex 88.45999908447266 142.3638305664062 0
    vertex 91.34674835205078 137.3638305664062 0
  endloop
endfacet
facet normal 0 0 -1
  outer loop
    vertex 91.34674835205078 137.3638305664062 0
    vertex 88.45999908447266 142.3638305664062 0
    vertex 160.4600067138672 142.3638305664062 0
  endloop
endfacet
facet normal 0 0 -1
  outer loop
    vertex 91.34674835205078 137.3638305664062 0
    vertex 160.4600067138672 142.3638305664062 0
    vertex 157.5732421875 137.3638305664062 -1.409983220098125e-15
  endloop
endfacet
facet normal 0 0 -1
  outer loop
    vertex 157.5732421875 137.3638305664062 -1.409983220098125e-15
    vertex 160.4600067138672 142.3638305664062 0
    vertex 190.6864929199219 80.01000213623047 0
  endloop
endfacet
facet normal 0 0 -1
  outer loop
    vertex 190.6864929199219 80.01000213623047 0
    vertex 160.4600067138672 142.3638305664062 0
    vertex 196.4600067138672 80.01000213623047 0
  endloop
endfacet
facet normal 0 0 -1
  outer loop
    vertex 58.23350143432617 80.01000213623047 -1.409983220098125e-15
    vertex 88.45999908447266 17.65617179870605 0
    vertex 52.45999908447266 80.01000213623047 0
  endloop
endfacet
facet normal 0 0 -1
  outer loop
    vertex 88.45999908447266 17.65617179870605 0
    vertex 58.23350143432617 80.01000213623047 -1.409983220098125e-15
    vertex 91.34674835205078 22.65617179870605 -1.409983220098125e-15
  endloop
endfacet
facet normal 0 0 -1
  outer loop
    vertex 88.45999908447266 17.65617179870605 0
    vertex 91.34674835205078 22.65617179870605 -1.409983220098125e-15
    vertex 160.4600067138672 17.65617179870605 0
  endloop
endfacet
facet normal 0 0 -1
  outer loop
    vertex 160.4600067138672 17.65617179870605 0
    vertex 91.34674835205078 22.65617179870605 -1.409983220098125e-15
    vertex 157.5732421875 22.65617179870605 0
  endloop
endfacet
facet normal 0 0 -1
  outer loop
    vertex 160.4600067138672 17.65617179870605 0
    vertex 157.5732421875 22.65617179870605 0
    vertex 190.6864929199219 80.01000213623047 0
  endloop
endfacet
facet normal 0 0 -1
  outer loop
    vertex 160.4600067138672 17.65617179870605 0
    vertex 190.6864929199219 80.01000213623047 0
    vertex 196.4600067138672 80.01000213623047 0
  endloop
endfacet
facet normal 0 0 1
  outer loop
    vertex 88.45999908447266 17.65617179870605 10
    vertex 64.00700378417969 80.01000213623047 10
    vertex 52.45999908447266 80.01000213623047 10
  endloop
endfacet
facet normal 0 0 1
  outer loop
    vertex 64.00700378417969 80.01000213623047 10
    vertex 88.45999908447266 17.65617179870605 10
    vertex 94.23350524902344 27.65617179870605 10
  endloop
endfacet
facet normal 0 0 1
  outer loop
    vertex 94.23350524902344 27.65617179870605 10
    vertex 88.45999908447266 17.65617179870605 10
    vertex 160.4600067138672 17.65617179870605 10
  endloop
endfacet
facet normal 0 0 1
  outer loop
    vertex 94.23350524902344 27.65617179870605 10
    vertex 160.4600067138672 17.65617179870605 10
    vertex 154.6864929199219 27.65617179870605 10
  endloop
endfacet
facet normal 0 0 1
  outer loop
    vertex 154.6864929199219 27.65617179870605 10
    vertex 160.4600067138672 17.65617179870605 10
    vertex 184.9129943847656 80.01000213623047 10
  endloop
endfacet
facet normal 0 0 1
  outer loop
    vertex 184.9129943847656 80.01000213623047 10
    vertex 160.4600067138672 17.65617179870605 10
    vertex 196.4600067138672 80.01000213623047 10
  endloop
endfacet
facet normal 0 0 1
  outer loop
    vertex 64.00700378417969 80.01000213623047 10
    vertex 88.45999908447266 142.3638305664062 10
    vertex 52.45999908447266 80.01000213623047 10
  endloop
endfacet
facet normal 0 0 1
  outer loop
    vertex 88.45999908447266 142.3638305664062 10
    vertex 64.00700378417969 80.01000213623047 10
    vertex 94.23350524902344 132.3638305664062 10
  endloop
endfacet
facet normal 0 0 1
  outer loop
    vertex 88.45999908447266 142.3638305664062 10
    vertex 94.23350524902344 132.3638305664062 10
    vertex 160.4600067138672 142.3638305664062 10
  endloop
endfacet
facet normal 0 0 1
  outer loop
    vertex 160.4600067138672 142.3638305664062 10
    vertex 94.23350524902344 132.3638305664062 10
    vertex 154.6864929199219 132.3638305664062 10
  endloop
endfacet
facet normal 0 0 1
  outer loop
    vertex 160.4600067138672 142.3638305664062 10
    vertex 154.6864929199219 132.3638305664062 10
    vertex 184.9129943847656 80.01000213623047 10
  endloop
endfacet
facet normal 0 0 1
  outer loop
    vertex 160.4600067138672 142.3638305664062 10
    vertex 184.9129943847656 80.01000213623047 10
    vertex 196.4600067138672 80.01000213623047 10
  endloop
endfacet
facet normal 1.865890365977178e-16 -1 0
  outer loop
    vertex 154.6864929199219 27.65617179870605 20
    vertex 94.23350524902344 27.65617179870605 10
    vertex 154.6864929199219 27.65617179870605 10
  endloop
endfacet
facet normal 1.865890365977178e-16 -1 0
  outer loop
    vertex 94.23350524902344 27.65617179870605 10
    vertex 154.6864929199219 27.65617179870605 20
    vertex 94.23350524902344 27.65617179870605 20
  endloop
endfacet
facet normal 0.8660253882408142 -0.5 0
  outer loop
    vertex 184.9129943847656 80.01000213623047 10
    vertex 154.6864929199219 27.65617179870605 20
    vertex 154.6864929199219 27.65617179870605 10
  endloop
endfacet
facet normal 0.8660253882408142 -0.5 0
  outer loop
    vertex 154.6864929199219 27.65617179870605 20
    vertex 184.9129943847656 80.01000213623047 10
    vertex 184.9129943847656 80.01000213623047 20
  endloop
endfacet
facet normal 0.8660253882408142 0.5 0
  outer loop
    vertex 154.6864929199219 132.3638305664062 10
    vertex 184.9129943847656 80.01000213623047 20
    vertex 184.9129943847656 80.01000213623047 10
  endloop
endfacet
facet normal 0.8660253882408142 0.5 0
  outer loop
    vertex 184.9129943847656 80.01000213623047 20
    vertex 154.6864929199219 132.3638305664062 10
    vertex 154.6864929199219 132.3638305664062 20
  endloop
endfacet
facet normal -7.463561463908711e-16 1 0
  outer loop
    vertex 94.23350524902344 132.3638305664062 20
    vertex 154.6864929199219 132.3638305664062 10
    vertex 94.23350524902344 132.3638305664062 10
  endloop
endfacet
facet normal -7.463561463908711e-16 1 0
  outer loop
    vertex 154.6864929199219 132.3638305664062 10
    vertex 94.23350524902344 132.3638305664062 20
    vertex 154.6864929199219 132.3638305664062 20
  endloop
endfacet
facet normal -0.8660253882408142 0.5 0
  outer loop
    vertex 94.23350524902344 132.3638305664062 20
    vertex 64.00700378417969 80.01000213623047 10
    vertex 64.00700378417969 80.01000213623047 20
  endloop
endfacet
facet normal -0.8660253882408142 0.5 0
  outer loop
    vertex 64.00700378417969 80.01000213623047 10
    vertex 94.23350524902344 132.3638305664062 20
    vertex 94.23350524902344 132.3638305664062 10
  endloop
endfacet
facet normal -0.8660253882408142 -0.5 -0
  outer loop
    vertex 64.00700378417969 80.01000213623047 20
    vertex 94.23350524902344 27.65617179870605 10
    vertex 94.23350524902344 27.65617179870605 20
  endloop
endfacet
facet normal -0.8660253882408142 -0.5 -0
  outer loop
    vertex 94.23350524902344 27.65617179870605 10
    vertex 64.00700378417969 80.01000213623047 20
    vertex 64.00700378417969 80.01000213623047 10
  endloop
endfacet
facet normal 7.096772904341549e-18 6.901450852419982e-34 -1
  outer loop
    vertex 91.34674835205078 137.3638305664062 8
    vertex 91.34674835205078 22.65617179870605 8
    vertex 58.23350143432617 80.01000213623047 8
  endloop
endfacet
facet normal 7.096772904341549e-18 6.901450852419982e-34 -1
  outer loop
    vertex 91.34674835205078 22.65617179870605 8
    vertex 91.34674835205078 137.3638305664062 8
    vertex 157.5732421875 137.3638305664062 8
  endloop
endfacet
facet normal 7.096772904341549e-18 6.901450852419982e-34 -1
  outer loop
    vertex 91.34674835205078 22.65617179870605 8
    vertex 157.5732421875 137.3638305664062 8
    vertex 157.5732421875 22.65617179870605 8
  endloop
endfacet
facet normal 7.096772904341549e-18 6.901450852419982e-34 -1
  outer loop
    vertex 157.5732421875 22.65617179870605 8
    vertex 157.5732421875 137.3638305664062 8
    vertex 190.6864929199219 80.01000213623047 8
  endloop
endfacet
facet normal 0.8660253882408142 0.5 6.145985452083804e-18
  outer loop
    vertex 58.23350143432617 80.01000213623047 -1.409983220098125e-15
    vertex 91.34674835205078 22.65617179870605 8
    vertex 91.34674835205078 22.65617179870605 -1.409983220098125e-15
  endloop
endfacet
facet normal 0.8660253882408142 0.5 6.145985452083804e-18
  outer loop
    vertex 91.34674835205078 22.65617179870605 8
    vertex 58.23350143432617 80.01000213623047 -1.409983220098125e-15
    vertex 58.23350143432617 80.01000213623047 8
  endloop
endfacet
facet normal 0.8660253882408142 -0.5 6.145985452083804e-18
  outer loop
    vertex 91.34674835205078 137.3638305664062 0
    vertex 58.23350143432617 80.01000213623047 8
    vertex 58.23350143432617 80.01000213623047 -1.409983220098125e-15
  endloop
endfacet
facet normal 0.8660253882408142 -0.5 6.145985452083804e-18
  outer loop
    vertex 58.23350143432617 80.01000213623047 8
    vertex 91.34674835205078 137.3638305664062 0
    vertex 91.34674835205078 137.3638305664062 8
  endloop
endfacet
facet normal 6.812901988167887e-16 -1 4.144816958228387e-33
  outer loop
    vertex 157.5732421875 137.3638305664062 8
    vertex 91.34674835205078 137.3638305664062 0
    vertex 157.5732421875 137.3638305664062 -1.409983220098125e-15
  endloop
endfacet
facet normal 6.812901988167887e-16 -1 4.144816958228387e-33
  outer loop
    vertex 91.34674835205078 137.3638305664062 0
    vertex 157.5732421875 137.3638305664062 8
    vertex 91.34674835205078 137.3638305664062 8
  endloop
endfacet
facet normal -0.8660253882408142 -0.5 -6.145985452083804e-18
  outer loop
    vertex 157.5732421875 137.3638305664062 8
    vertex 190.6864929199219 80.01000213623047 0
    vertex 190.6864929199219 80.01000213623047 8
  endloop
endfacet
facet normal -0.8660253882408142 -0.5 -6.145985452083804e-18
  outer loop
    vertex 190.6864929199219 80.01000213623047 0
    vertex 157.5732421875 137.3638305664062 8
    vertex 157.5732421875 137.3638305664062 -1.409983220098125e-15
  endloop
endfacet
facet normal -0.8660253882408142 0.5 -6.145985452083804e-18
  outer loop
    vertex 190.6864929199219 80.01000213623047 8
    vertex 157.5732421875 22.65617179870605 0
    vertex 157.5732421875 22.65617179870605 8
  endloop
endfacet
facet normal -0.8660253882408142 0.5 -6.145985452083804e-18
  outer loop
    vertex 157.5732421875 22.65617179870605 0
    vertex 190.6864929199219 80.01000213623047 8
    vertex 190.6864929199219 80.01000213623047 0
  endloop
endfacet
facet normal -2.554838245562958e-16 1 -1.122965640881367e-33
  outer loop
    vertex 91.34674835205078 22.65617179870605 8
    vertex 157.5732421875 22.65617179870605 0
    vertex 91.34674835205078 22.65617179870605 -1.409983220098125e-15
  endloop
endfacet
facet normal -2.554838245562958e-16 1 -1.122965640881367e-33
  outer loop
    vertex 157.5732421875 22.65617179870605 0
    vertex 91.34674835205078 22.65617179870605 8
    vertex 157.5732421875 22.65617179870605 8
  endloop
endfacet
facet normal 0 0 1
  outer loop
    vertex 154.6864929199219 27.65617179870605 20
    vertex 119.2099990844727 74.76000213623047 20
    vertex 94.23350524902344 27.65617179870605 20
  endloop
endfacet
facet normal 0 0 1
  outer loop
    vertex 119.2099990844727 74.76000213623047 20
    vertex 154.6864929199219 27.65617179870605 20
    vertex 129.7100067138672 74.76000213623047 20
  endloop
endfacet
facet normal 0 0 1
  outer loop
    vertex 129.7100067138672 74.76000213623047 20
    vertex 154.6864929199219 27.65617179870605 20
    vertex 129.7100067138672 85.26000213623047 20
  endloop
endfacet
facet normal 0 0 1
  outer loop
    vertex 129.7100067138672 85.26000213623047 20
    vertex 154.6864929199219 27.65617179870605 20
    vertex 154.6864929199219 132.3638305664062 20
  endloop
endfacet
facet normal 0 0 1
  outer loop
    vertex 154.6864929199219 132.3638305664062 20
    vertex 154.6864929199219 27.65617179870605 20
    vertex 184.9129943847656 80.01000213623047 20
  endloop
endfacet
facet normal 0 0 1
  outer loop
    vertex 94.23350524902344 27.65617179870605 20
    vertex 94.23350524902344 132.3638305664062 20
    vertex 64.00700378417969 80.01000213623047 20
  endloop
endfacet
facet normal 0 0 1
  outer loop
    vertex 94.23350524902344 132.3638305664062 20
    vertex 94.23350524902344 27.65617179870605 20
    vertex 119.2099990844727 85.26000213623047 20
  endloop
endfacet
facet normal 0 0 1
  outer loop
    vertex 94.23350524902344 132.3638305664062 20
    vertex 119.2099990844727 85.26000213623047 20
    vertex 154.6864929199219 132.3638305664062 20
  endloop
endfacet
facet normal 0 0 1
  outer loop
    vertex 119.2099990844727 85.26000213623047 20
    vertex 94.23350524902344 27.65617179870605 20
    vertex 119.2099990844727 74.76000213623047 20
  endloop
endfacet
facet normal 0 0 1
  outer loop
    vertex 154.6864929199219 132.3638305664062 20
    vertex 119.2099990844727 85.26000213623047 20
    vertex 129.7100067138672 85.26000213623047 20
  endloop
endfacet
facet normal 0 0 1
  outer loop
    vertex 129.7100067138672 74.76000213623047 10
    vertex 119.2099990844727 85.26000213623047 10
    vertex 119.2099990844727 74.76000213623047 10
  endloop
endfacet
facet normal 0 0 1
  outer loop
    vertex 119.2099990844727 85.26000213623047 10
    vertex 129.7100067138672 74.76000213623047 10
    vertex 129.7100067138672 85.26000213623047 10
  endloop
endfacet
facet normal 0 1 0
  outer loop
    vertex 119.2099990844727 74.76000213623047 20
    vertex 129.7100067138672 74.76000213623047 10
    vertex 119.2099990844727 74.76000213623047 10
  endloop
endfacet
facet normal 0 1 0
  outer loop
    vertex 129.7100067138672 74.76000213623047 10
    vertex 119.2099990844727 74.76000213623047 20
    vertex 129.7100067138672 74.76000213623047 20
  endloop
endfacet
facet normal -1 0 0
  outer loop
    vertex 129.7100067138672 85.26000213623047 20
    vertex 129.7100067138672 74.76000213623047 10
    vertex 129.7100067138672 74.76000213623047 20
  endloop
endfacet
facet normal -1 0 0
  outer loop
    vertex 129.7100067138672 74.76000213623047 10
    vertex 129.7100067138672 85.26000213623047 20
    vertex 129.7100067138672 85.26000213623047 10
  endloop
endfacet
facet normal -0 -1 -0
  outer loop
    vertex 129.7100067138672 85.26000213623047 20
    vertex 119.2099990844727 85.26000213623047 10
    vertex 129.7100067138672 85.26000213623047 10
  endloop
endfacet
facet normal -0 -1 -0
  outer loop
    vertex 119.2099990844727 85.26000213623047 10
    vertex 129.7100067138672 85.26000213623047 20
    vertex 119.2099990844727 85.26000213623047 20
  endloop
endfacet
facet normal 1 0 0
  outer loop
    vertex 119.2099990844727 85.26000213623047 10
    vertex 119.2099990844727 74.76000213623047 20
    vertex 119.2099990844727 74.76000213623047 10
  endloop
endfacet
facet normal 1 0 0
  outer loop
    vertex 119.2099990844727 74.76000213623047 20
    vertex 119.2099990844727 85.26000213623047 10
    vertex 119.2099990844727 85.26000213623047 20
  endloop
endfacet
endsolid com.sketchup.SketchUp.2020
