solid com.sketchup.SketchUp.2020
facet normal 0 -1 0
  outer loop
    vertex 136.4600067138672 68.01000213623047 255.9978790283203
    vertex 112.4599990844727 68.01000213623047 150
    vertex 136.4600067138672 68.01000213623047 150
  endloop
endfacet
facet normal 0 -1 0
  outer loop
    vertex 112.4599990844727 68.01000213623047 150
    vertex 136.4600067138672 68.01000213623047 255.9978790283203
    vertex 112.4599990844727 68.01000213623047 255.9978790283203
  endloop
endfacet
facet normal 0 0 1
  outer loop
    vertex 112.4599990844727 68.01000213623047 255.9978790283203
    vertex 119.3600006103516 74.91000366210938 255.9978790283203
    vertex 112.4599990844727 92.01000213623047 255.9978790283203
  endloop
endfacet
facet normal 0 0 1
  outer loop
    vertex 119.3600006103516 74.91000366210938 255.9978790283203
    vertex 112.4599990844727 68.01000213623047 255.9978790283203
    vertex 136.4600067138672 68.01000213623047 255.9978790283203
  endloop
endfacet
facet normal 0 0 1
  outer loop
    vertex 119.3600006103516 74.91000366210938 255.9978790283203
    vertex 136.4600067138672 68.01000213623047 255.9978790283203
    vertex 129.5599975585938 74.91000366210938 255.9978790283203
  endloop
endfacet
facet normal 0 0 1
  outer loop
    vertex 129.5599975585938 74.91000366210938 255.9978790283203
    vertex 136.4600067138672 68.01000213623047 255.9978790283203
    vertex 129.5599975585938 85.11000061035156 255.9978790283203
  endloop
endfacet
facet normal 0 0 1
  outer loop
    vertex 112.4599990844727 92.01000213623047 255.9978790283203
    vertex 119.3600006103516 85.11000061035156 255.9978790283203
    vertex 136.4600067138672 92.01000213623047 255.9978790283203
  endloop
endfacet
facet normal 0 0 1
  outer loop
    vertex 119.3600006103516 85.11000061035156 255.9978790283203
    vertex 112.4599990844727 92.01000213623047 255.9978790283203
    vertex 119.3600006103516 74.91000366210938 255.9978790283203
  endloop
endfacet
facet normal 0 0 1
  outer loop
    vertex 136.4600067138672 92.01000213623047 255.9978790283203
    vertex 119.3600006103516 85.11000061035156 255.9978790283203
    vertex 129.5599975585938 85.11000061035156 255.9978790283203
  endloop
endfacet
facet normal 0 0 1
  outer loop
    vertex 136.4600067138672 92.01000213623047 255.9978790283203
    vertex 129.5599975585938 85.11000061035156 255.9978790283203
    vertex 136.4600067138672 68.01000213623047 255.9978790283203
  endloop
endfacet
facet normal 0 1 0
  outer loop
    vertex 112.4599990844727 92.01000213623047 255.9978790283203
    vertex 136.4600067138672 92.01000213623047 150
    vertex 112.4599990844727 92.01000213623047 150
  endloop
endfacet
facet normal 0 1 0
  outer loop
    vertex 136.4600067138672 92.01000213623047 150
    vertex 112.4599990844727 92.01000213623047 255.9978790283203
    vertex 136.4600067138672 92.01000213623047 255.9978790283203
  endloop
endfacet
facet normal -1 0 0
  outer loop
    vertex 129.5599975585938 85.11000061035156 255.9978790283203
    vertex 129.5599975585938 74.91000366210938 245.9978790283203
    vertex 129.5599975585938 74.91000366210938 255.9978790283203
  endloop
endfacet
facet normal -1 0 0
  outer loop
    vertex 129.5599975585938 74.91000366210938 245.9978790283203
    vertex 129.5599975585938 85.11000061035156 255.9978790283203
    vertex 129.5599975585938 85.11000061035156 245.9978790283203
  endloop
endfacet
facet normal 0 1 0
  outer loop
    vertex 119.3600006103516 74.91000366210938 255.9978790283203
    vertex 129.5599975585938 74.91000366210938 245.9978790283203
    vertex 119.3600006103516 74.91000366210938 245.9978790283203
  endloop
endfacet
facet normal 0 1 0
  outer loop
    vertex 129.5599975585938 74.91000366210938 245.9978790283203
    vertex 119.3600006103516 74.91000366210938 255.9978790283203
    vertex 129.5599975585938 74.91000366210938 255.9978790283203
  endloop
endfacet
facet normal -0 -1 -0
  outer loop
    vertex 129.5599975585938 85.11000061035156 255.9978790283203
    vertex 119.3600006103516 85.11000061035156 245.9978790283203
    vertex 129.5599975585938 85.11000061035156 245.9978790283203
  endloop
endfacet
facet normal -0 -1 -0
  outer loop
    vertex 119.3600006103516 85.11000061035156 245.9978790283203
    vertex 129.5599975585938 85.11000061035156 255.9978790283203
    vertex 119.3600006103516 85.11000061035156 255.9978790283203
  endloop
endfacet
facet normal 1 0 0
  outer loop
    vertex 119.3600006103516 85.11000061035156 245.9978790283203
    vertex 119.3600006103516 74.91000366210938 255.9978790283203
    vertex 119.3600006103516 74.91000366210938 245.9978790283203
  endloop
endfacet
facet normal 1 0 0
  outer loop
    vertex 119.3600006103516 74.91000366210938 255.9978790283203
    vertex 119.3600006103516 85.11000061035156 245.9978790283203
    vertex 119.3600006103516 85.11000061035156 255.9978790283203
  endloop
endfacet
facet normal 0 0 1
  outer loop
    vertex 129.5599975585938 74.91000366210938 245.9978790283203
    vertex 119.3600006103516 85.11000061035156 245.9978790283203
    vertex 119.3600006103516 74.91000366210938 245.9978790283203
  endloop
endfacet
facet normal 0 0 1
  outer loop
    vertex 119.3600006103516 85.11000061035156 245.9978790283203
    vertex 129.5599975585938 74.91000366210938 245.9978790283203
    vertex 129.5599975585938 85.11000061035156 245.9978790283203
  endloop
endfacet
facet normal 1 -2.817962942578198e-16 -1.484560368288028e-16
  outer loop
    vertex 136.4600067138672 84.01000213623047 146
    vertex 136.4600067138672 78.01000213623047 150
    vertex 136.4600067138672 76.01000213623047 146
  endloop
endfacet
facet normal 1 -2.817962942578198e-16 -1.484560368288028e-16
  outer loop
    vertex 136.4600067138672 78.01000213623047 150
    vertex 136.4600067138672 84.01000213623047 146
    vertex 136.4600067138672 82.01000213623047 150
  endloop
endfacet
facet normal 1 -2.817962942578198e-16 -1.484560368288028e-16
  outer loop
    vertex 136.4600067138672 78.01000213623047 150
    vertex 136.4600067138672 68.01000213623047 255.9978790283203
    vertex 136.4600067138672 68.01000213623047 150
  endloop
endfacet
facet normal 1 -2.817962942578198e-16 -1.484560368288028e-16
  outer loop
    vertex 136.4600067138672 68.01000213623047 255.9978790283203
    vertex 136.4600067138672 78.01000213623047 150
    vertex 136.4600067138672 92.01000213623047 255.9978790283203
  endloop
endfacet
facet normal 1 -2.817962942578198e-16 -1.484560368288028e-16
  outer loop
    vertex 136.4600067138672 92.01000213623047 255.9978790283203
    vertex 136.4600067138672 78.01000213623047 150
    vertex 136.4600067138672 82.01000213623047 150
  endloop
endfacet
facet normal 1 -2.817962942578198e-16 -1.484560368288028e-16
  outer loop
    vertex 136.4600067138672 92.01000213623047 255.9978790283203
    vertex 136.4600067138672 82.01000213623047 150
    vertex 136.4600067138672 92.01000213623047 150
  endloop
endfacet
facet normal 0 0 -1
  outer loop
    vertex 136.4600067138672 84.01000213623047 146
    vertex 112.4599990844727 76.01000213623047 146
    vertex 112.4599990844727 84.01000213623047 146
  endloop
endfacet
facet normal 0 0 -1
  outer loop
    vertex 112.4599990844727 76.01000213623047 146
    vertex 136.4600067138672 84.01000213623047 146
    vertex 136.4600067138672 76.01000213623047 146
  endloop
endfacet
facet normal -1 0 0
  outer loop
    vertex 112.4599990844727 92.01000213623047 255.9978790283203
    vertex 112.4599990844727 68.01000213623047 150
    vertex 112.4599990844727 68.01000213623047 255.9978790283203
  endloop
endfacet
facet normal -1 0 0
  outer loop
    vertex 112.4599990844727 68.01000213623047 150
    vertex 112.4599990844727 92.01000213623047 255.9978790283203
    vertex 112.4599990844727 78.01000213623047 150
  endloop
endfacet
facet normal -1 0 0
  outer loop
    vertex 112.4599990844727 78.01000213623047 150
    vertex 112.4599990844727 92.01000213623047 255.9978790283203
    vertex 112.4599990844727 82.01000213623047 150
  endloop
endfacet
facet normal -1 0 0
  outer loop
    vertex 112.4599990844727 82.01000213623047 150
    vertex 112.4599990844727 92.01000213623047 255.9978790283203
    vertex 112.4599990844727 92.01000213623047 150
  endloop
endfacet
facet normal -1 0 0
  outer loop
    vertex 112.4599990844727 78.01000213623047 150
    vertex 112.4599990844727 84.01000213623047 146
    vertex 112.4599990844727 76.01000213623047 146
  endloop
endfacet
facet normal -1 0 0
  outer loop
    vertex 112.4599990844727 84.01000213623047 146
    vertex 112.4599990844727 78.01000213623047 150
    vertex 112.4599990844727 82.01000213623047 150
  endloop
endfacet
facet normal 0 0 -1
  outer loop
    vertex 136.4600067138672 78.01000213623047 150
    vertex 112.4599990844727 68.01000213623047 150
    vertex 112.4599990844727 78.01000213623047 150
  endloop
endfacet
facet normal 0 0 -1
  outer loop
    vertex 112.4599990844727 68.01000213623047 150
    vertex 136.4600067138672 78.01000213623047 150
    vertex 136.4600067138672 68.01000213623047 150
  endloop
endfacet
facet normal 0 -0.8944271802902222 0.4472135901451111
  outer loop
    vertex 136.4600067138672 78.01000213623047 150
    vertex 112.4599990844727 76.01000213623047 146
    vertex 136.4600067138672 76.01000213623047 146
  endloop
endfacet
facet normal 0 -0.8944271802902222 0.4472135901451111
  outer loop
    vertex 112.4599990844727 76.01000213623047 146
    vertex 136.4600067138672 78.01000213623047 150
    vertex 112.4599990844727 78.01000213623047 150
  endloop
endfacet
facet normal 0 0.8944271802902222 0.4472135901451111
  outer loop
    vertex 112.4599990844727 82.01000213623047 150
    vertex 136.4600067138672 84.01000213623047 146
    vertex 112.4599990844727 84.01000213623047 146
  endloop
endfacet
facet normal 0 0.8944271802902222 0.4472135901451111
  outer loop
    vertex 136.4600067138672 84.01000213623047 146
    vertex 112.4599990844727 82.01000213623047 150
    vertex 136.4600067138672 82.01000213623047 150
  endloop
endfacet
facet normal 0 0 -1
  outer loop
    vertex 136.4600067138672 92.01000213623047 150
    vertex 112.4599990844727 82.01000213623047 150
    vertex 112.4599990844727 92.01000213623047 150
  endloop
endfacet
facet normal 0 0 -1
  outer loop
    vertex 112.4599990844727 82.01000213623047 150
    vertex 136.4600067138672 92.01000213623047 150
    vertex 136.4600067138672 82.01000213623047 150
  endloop
endfacet
endsolid com.sketchup.SketchUp.2020
