solid com.sketchup.SketchUp.2020
facet normal 0 -1 0
  outer loop
    vertex 136.4600067138672 68.01000213623047 250
    vertex 112.4599990844727 68.01000213623047 20
    vertex 136.4600067138672 68.01000213623047 20
  endloop
endfacet
facet normal 0 -1 0
  outer loop
    vertex 112.4599990844727 68.01000213623047 20
    vertex 136.4600067138672 68.01000213623047 250
    vertex 112.4599990844727 68.01000213623047 250
  endloop
endfacet
facet normal 0 0 1
  outer loop
    vertex 112.4599990844727 68.01000213623047 250
    vertex 119.3600006103516 74.91000366210938 250
    vertex 112.4599990844727 92.01000213623047 250
  endloop
endfacet
facet normal 0 0 1
  outer loop
    vertex 119.3600006103516 74.91000366210938 250
    vertex 112.4599990844727 68.01000213623047 250
    vertex 136.4600067138672 68.01000213623047 250
  endloop
endfacet
facet normal 0 0 1
  outer loop
    vertex 119.3600006103516 74.91000366210938 250
    vertex 136.4600067138672 68.01000213623047 250
    vertex 129.5599975585938 74.91000366210938 250
  endloop
endfacet
facet normal 0 0 1
  outer loop
    vertex 129.5599975585938 74.91000366210938 250
    vertex 136.4600067138672 68.01000213623047 250
    vertex 129.5599975585938 85.11000061035156 250
  endloop
endfacet
facet normal 0 0 1
  outer loop
    vertex 112.4599990844727 92.01000213623047 250
    vertex 119.3600006103516 85.11000061035156 250
    vertex 136.4600067138672 92.01000213623047 250
  endloop
endfacet
facet normal 0 0 1
  outer loop
    vertex 119.3600006103516 85.11000061035156 250
    vertex 112.4599990844727 92.01000213623047 250
    vertex 119.3600006103516 74.91000366210938 250
  endloop
endfacet
facet normal 0 0 1
  outer loop
    vertex 136.4600067138672 92.01000213623047 250
    vertex 119.3600006103516 85.11000061035156 250
    vertex 129.5599975585938 85.11000061035156 250
  endloop
endfacet
facet normal 0 0 1
  outer loop
    vertex 136.4600067138672 92.01000213623047 250
    vertex 129.5599975585938 85.11000061035156 250
    vertex 136.4600067138672 68.01000213623047 250
  endloop
endfacet
facet normal 1 0 0
  outer loop
    vertex 136.4600067138672 92.01000213623047 20
    vertex 136.4600067138672 68.01000213623047 250
    vertex 136.4600067138672 68.01000213623047 20
  endloop
endfacet
facet normal 1 0 0
  outer loop
    vertex 136.4600067138672 68.01000213623047 250
    vertex 136.4600067138672 92.01000213623047 20
    vertex 136.4600067138672 92.01000213623047 250
  endloop
endfacet
facet normal -1 0 0
  outer loop
    vertex 112.4599990844727 92.01000213623047 250
    vertex 112.4599990844727 68.01000213623047 20
    vertex 112.4599990844727 68.01000213623047 250
  endloop
endfacet
facet normal -1 0 0
  outer loop
    vertex 112.4599990844727 68.01000213623047 20
    vertex 112.4599990844727 92.01000213623047 250
    vertex 112.4599990844727 92.01000213623047 20
  endloop
endfacet
facet normal 0 1 0
  outer loop
    vertex 112.4599990844727 92.01000213623047 250
    vertex 136.4600067138672 92.01000213623047 20
    vertex 112.4599990844727 92.01000213623047 20
  endloop
endfacet
facet normal 0 1 0
  outer loop
    vertex 136.4600067138672 92.01000213623047 20
    vertex 112.4599990844727 92.01000213623047 250
    vertex 136.4600067138672 92.01000213623047 250
  endloop
endfacet
facet normal 0 0 -1
  outer loop
    vertex 112.4599990844727 92.01000213623047 20
    vertex 119.4599990844727 85.01000213623047 20
    vertex 112.4599990844727 68.01000213623047 20
  endloop
endfacet
facet normal 0 0 -1
  outer loop
    vertex 119.4599990844727 85.01000213623047 20
    vertex 112.4599990844727 92.01000213623047 20
    vertex 136.4600067138672 92.01000213623047 20
  endloop
endfacet
facet normal 0 0 -1
  outer loop
    vertex 119.4599990844727 85.01000213623047 20
    vertex 136.4600067138672 92.01000213623047 20
    vertex 129.4600067138672 85.01000213623047 20
  endloop
endfacet
facet normal 0 0 -1
  outer loop
    vertex 129.4600067138672 85.01000213623047 20
    vertex 136.4600067138672 92.01000213623047 20
    vertex 129.4600067138672 75.01000213623047 20
  endloop
endfacet
facet normal 0 0 -1
  outer loop
    vertex 112.4599990844727 68.01000213623047 20
    vertex 119.4599990844727 75.01000213623047 20
    vertex 136.4600067138672 68.01000213623047 20
  endloop
endfacet
facet normal 0 0 -1
  outer loop
    vertex 119.4599990844727 75.01000213623047 20
    vertex 112.4599990844727 68.01000213623047 20
    vertex 119.4599990844727 85.01000213623047 20
  endloop
endfacet
facet normal 0 0 -1
  outer loop
    vertex 136.4600067138672 68.01000213623047 20
    vertex 119.4599990844727 75.01000213623047 20
    vertex 129.4600067138672 75.01000213623047 20
  endloop
endfacet
facet normal 0 0 -1
  outer loop
    vertex 136.4600067138672 68.01000213623047 20
    vertex 129.4600067138672 75.01000213623047 20
    vertex 136.4600067138672 92.01000213623047 20
  endloop
endfacet
facet normal -1 0 0
  outer loop
    vertex 119.4599990844727 85.01000213623047 20
    vertex 119.4599990844727 75.01000213623047 10
    vertex 119.4599990844727 75.01000213623047 20
  endloop
endfacet
facet normal -1 0 0
  outer loop
    vertex 119.4599990844727 75.01000213623047 10
    vertex 119.4599990844727 85.01000213623047 20
    vertex 119.4599990844727 85.01000213623047 10
  endloop
endfacet
facet normal 0 -1 0
  outer loop
    vertex 129.4600067138672 75.01000213623047 20
    vertex 119.4599990844727 75.01000213623047 10
    vertex 129.4600067138672 75.01000213623047 10
  endloop
endfacet
facet normal 0 -1 0
  outer loop
    vertex 119.4599990844727 75.01000213623047 10
    vertex 129.4600067138672 75.01000213623047 20
    vertex 119.4599990844727 75.01000213623047 20
  endloop
endfacet
facet normal 1 0 0
  outer loop
    vertex 129.4600067138672 85.01000213623047 10
    vertex 129.4600067138672 75.01000213623047 20
    vertex 129.4600067138672 75.01000213623047 10
  endloop
endfacet
facet normal 1 0 0
  outer loop
    vertex 129.4600067138672 75.01000213623047 20
    vertex 129.4600067138672 85.01000213623047 10
    vertex 129.4600067138672 85.01000213623047 20
  endloop
endfacet
facet normal 0 1 0
  outer loop
    vertex 119.4599990844727 85.01000213623047 20
    vertex 129.4600067138672 85.01000213623047 10
    vertex 119.4599990844727 85.01000213623047 10
  endloop
endfacet
facet normal 0 1 0
  outer loop
    vertex 129.4600067138672 85.01000213623047 10
    vertex 119.4599990844727 85.01000213623047 20
    vertex 129.4600067138672 85.01000213623047 20
  endloop
endfacet
facet normal 0 0 -1
  outer loop
    vertex 129.4600067138672 85.01000213623047 10
    vertex 119.4599990844727 75.01000213623047 10
    vertex 119.4599990844727 85.01000213623047 10
  endloop
endfacet
facet normal 0 0 -1
  outer loop
    vertex 119.4599990844727 75.01000213623047 10
    vertex 129.4600067138672 85.01000213623047 10
    vertex 129.4600067138672 75.01000213623047 10
  endloop
endfacet
facet normal 0 0 1
  outer loop
    vertex 129.5599975585938 74.91000366210938 240
    vertex 119.3600006103516 85.11000061035156 240
    vertex 119.3600006103516 74.91000366210938 240
  endloop
endfacet
facet normal 0 0 1
  outer loop
    vertex 119.3600006103516 85.11000061035156 240
    vertex 129.5599975585938 74.91000366210938 240
    vertex 129.5599975585938 85.11000061035156 240
  endloop
endfacet
facet normal -0 -1 -0
  outer loop
    vertex 129.5599975585938 85.11000061035156 250
    vertex 119.3600006103516 85.11000061035156 240
    vertex 129.5599975585938 85.11000061035156 240
  endloop
endfacet
facet normal -0 -1 -0
  outer loop
    vertex 119.3600006103516 85.11000061035156 240
    vertex 129.5599975585938 85.11000061035156 250
    vertex 119.3600006103516 85.11000061035156 250
  endloop
endfacet
facet normal 1 0 0
  outer loop
    vertex 119.3600006103516 85.11000061035156 240
    vertex 119.3600006103516 74.91000366210938 250
    vertex 119.3600006103516 74.91000366210938 240
  endloop
endfacet
facet normal 1 0 0
  outer loop
    vertex 119.3600006103516 74.91000366210938 250
    vertex 119.3600006103516 85.11000061035156 240
    vertex 119.3600006103516 85.11000061035156 250
  endloop
endfacet
facet normal 0 1 0
  outer loop
    vertex 119.3600006103516 74.91000366210938 250
    vertex 129.5599975585938 74.91000366210938 240
    vertex 119.3600006103516 74.91000366210938 240
  endloop
endfacet
facet normal 0 1 0
  outer loop
    vertex 129.5599975585938 74.91000366210938 240
    vertex 119.3600006103516 74.91000366210938 250
    vertex 129.5599975585938 74.91000366210938 250
  endloop
endfacet
facet normal -1 0 0
  outer loop
    vertex 129.5599975585938 85.11000061035156 250
    vertex 129.5599975585938 74.91000366210938 240
    vertex 129.5599975585938 74.91000366210938 250
  endloop
endfacet
facet normal -1 0 0
  outer loop
    vertex 129.5599975585938 74.91000366210938 240
    vertex 129.5599975585938 85.11000061035156 250
    vertex 129.5599975585938 85.11000061035156 240
  endloop
endfacet
endsolid com.sketchup.SketchUp.2020
