solid com.sketchup.SketchUp.2020
facet normal 1 -2.128410462621107e-32 8.676820223215841e-17
  outer loop
    vertex 136.4600067138672 92.01000213623047 20
    vertex 136.4600067138672 68.01000213623047 150
    vertex 136.4600067138672 68.01000213623047 20
  endloop
endfacet
facet normal 1 -2.128410462621107e-32 8.676820223215841e-17
  outer loop
    vertex 136.4600067138672 68.01000213623047 150
    vertex 136.4600067138672 92.01000213623047 20
    vertex 136.4600067138672 76.01000213623047 146
  endloop
endfacet
facet normal 1 -2.128410462621107e-32 8.676820223215841e-17
  outer loop
    vertex 136.4600067138672 76.01000213623047 146
    vertex 136.4600067138672 92.01000213623047 20
    vertex 136.4600067138672 84.01000213623047 146
  endloop
endfacet
facet normal 1 -2.128410462621107e-32 8.676820223215841e-17
  outer loop
    vertex 136.4600067138672 84.01000213623047 146
    vertex 136.4600067138672 92.01000213623047 150
    vertex 136.4600067138672 82.01000213623047 150
  endloop
endfacet
facet normal 1 -2.128410462621107e-32 8.676820223215841e-17
  outer loop
    vertex 136.4600067138672 92.01000213623047 150
    vertex 136.4600067138672 84.01000213623047 146
    vertex 136.4600067138672 92.01000213623047 20
  endloop
endfacet
facet normal 1 -2.128410462621107e-32 8.676820223215841e-17
  outer loop
    vertex 136.4600067138672 78.01000213623047 150
    vertex 136.4600067138672 68.01000213623047 150
    vertex 136.4600067138672 76.01000213623047 146
  endloop
endfacet
facet normal 0 0 -1
  outer loop
    vertex 112.4599990844727 92.01000213623047 20
    vertex 119.4599990844727 85.01000213623047 20
    vertex 112.4599990844727 68.01000213623047 20
  endloop
endfacet
facet normal 0 0 -1
  outer loop
    vertex 119.4599990844727 85.01000213623047 20
    vertex 112.4599990844727 92.01000213623047 20
    vertex 136.4600067138672 92.01000213623047 20
  endloop
endfacet
facet normal 0 0 -1
  outer loop
    vertex 119.4599990844727 85.01000213623047 20
    vertex 136.4600067138672 92.01000213623047 20
    vertex 129.4600067138672 85.01000213623047 20
  endloop
endfacet
facet normal 0 0 -1
  outer loop
    vertex 129.4600067138672 85.01000213623047 20
    vertex 136.4600067138672 92.01000213623047 20
    vertex 129.4600067138672 75.01000213623047 20
  endloop
endfacet
facet normal 0 0 -1
  outer loop
    vertex 112.4599990844727 68.01000213623047 20
    vertex 119.4599990844727 75.01000213623047 20
    vertex 136.4600067138672 68.01000213623047 20
  endloop
endfacet
facet normal 0 0 -1
  outer loop
    vertex 119.4599990844727 75.01000213623047 20
    vertex 112.4599990844727 68.01000213623047 20
    vertex 119.4599990844727 85.01000213623047 20
  endloop
endfacet
facet normal 0 0 -1
  outer loop
    vertex 136.4600067138672 68.01000213623047 20
    vertex 119.4599990844727 75.01000213623047 20
    vertex 129.4600067138672 75.01000213623047 20
  endloop
endfacet
facet normal 0 0 -1
  outer loop
    vertex 136.4600067138672 68.01000213623047 20
    vertex 129.4600067138672 75.01000213623047 20
    vertex 136.4600067138672 92.01000213623047 20
  endloop
endfacet
facet normal 0 1 0
  outer loop
    vertex 112.4599990844727 92.01000213623047 150
    vertex 136.4600067138672 92.01000213623047 20
    vertex 112.4599990844727 92.01000213623047 20
  endloop
endfacet
facet normal 0 1 0
  outer loop
    vertex 136.4600067138672 92.01000213623047 20
    vertex 112.4599990844727 92.01000213623047 150
    vertex 136.4600067138672 92.01000213623047 150
  endloop
endfacet
facet normal 0 -1 0
  outer loop
    vertex 136.4600067138672 68.01000213623047 150
    vertex 112.4599990844727 68.01000213623047 20
    vertex 136.4600067138672 68.01000213623047 20
  endloop
endfacet
facet normal 0 -1 0
  outer loop
    vertex 112.4599990844727 68.01000213623047 20
    vertex 136.4600067138672 68.01000213623047 150
    vertex 112.4599990844727 68.01000213623047 150
  endloop
endfacet
facet normal 0 0 1
  outer loop
    vertex 136.4600067138672 68.01000213623047 150
    vertex 112.4599990844727 78.01000213623047 150
    vertex 112.4599990844727 68.01000213623047 150
  endloop
endfacet
facet normal 0 0 1
  outer loop
    vertex 112.4599990844727 78.01000213623047 150
    vertex 136.4600067138672 68.01000213623047 150
    vertex 136.4600067138672 78.01000213623047 150
  endloop
endfacet
facet normal -1 0 0
  outer loop
    vertex 112.4599990844727 68.01000213623047 150
    vertex 112.4599990844727 76.01000213623047 146
    vertex 112.4599990844727 68.01000213623047 20
  endloop
endfacet
facet normal -1 0 0
  outer loop
    vertex 112.4599990844727 76.01000213623047 146
    vertex 112.4599990844727 68.01000213623047 150
    vertex 112.4599990844727 78.01000213623047 150
  endloop
endfacet
facet normal -1 0 0
  outer loop
    vertex 112.4599990844727 92.01000213623047 150
    vertex 112.4599990844727 84.01000213623047 146
    vertex 112.4599990844727 82.01000213623047 150
  endloop
endfacet
facet normal -1 0 0
  outer loop
    vertex 112.4599990844727 76.01000213623047 146
    vertex 112.4599990844727 92.01000213623047 20
    vertex 112.4599990844727 68.01000213623047 20
  endloop
endfacet
facet normal -1 0 0
  outer loop
    vertex 112.4599990844727 92.01000213623047 20
    vertex 112.4599990844727 76.01000213623047 146
    vertex 112.4599990844727 84.01000213623047 146
  endloop
endfacet
facet normal -1 0 0
  outer loop
    vertex 112.4599990844727 92.01000213623047 20
    vertex 112.4599990844727 84.01000213623047 146
    vertex 112.4599990844727 92.01000213623047 150
  endloop
endfacet
facet normal 0 -0.8944271802902222 -0.4472135901451111
  outer loop
    vertex 136.4600067138672 82.01000213623047 150
    vertex 112.4599990844727 84.01000213623047 146
    vertex 136.4600067138672 84.01000213623047 146
  endloop
endfacet
facet normal 0 -0.8944271802902222 -0.4472135901451111
  outer loop
    vertex 112.4599990844727 84.01000213623047 146
    vertex 136.4600067138672 82.01000213623047 150
    vertex 112.4599990844727 82.01000213623047 150
  endloop
endfacet
facet normal 0 0 1
  outer loop
    vertex 136.4600067138672 76.01000213623047 146
    vertex 112.4599990844727 84.01000213623047 146
    vertex 112.4599990844727 76.01000213623047 146
  endloop
endfacet
facet normal 0 0 1
  outer loop
    vertex 112.4599990844727 84.01000213623047 146
    vertex 136.4600067138672 76.01000213623047 146
    vertex 136.4600067138672 84.01000213623047 146
  endloop
endfacet
facet normal 0 0.8944271802902222 -0.4472135901451111
  outer loop
    vertex 112.4599990844727 78.01000213623047 150
    vertex 136.4600067138672 76.01000213623047 146
    vertex 112.4599990844727 76.01000213623047 146
  endloop
endfacet
facet normal 0 0.8944271802902222 -0.4472135901451111
  outer loop
    vertex 136.4600067138672 76.01000213623047 146
    vertex 112.4599990844727 78.01000213623047 150
    vertex 136.4600067138672 78.01000213623047 150
  endloop
endfacet
facet normal 0 0 1
  outer loop
    vertex 136.4600067138672 82.01000213623047 150
    vertex 112.4599990844727 92.01000213623047 150
    vertex 112.4599990844727 82.01000213623047 150
  endloop
endfacet
facet normal 0 0 1
  outer loop
    vertex 112.4599990844727 92.01000213623047 150
    vertex 136.4600067138672 82.01000213623047 150
    vertex 136.4600067138672 92.01000213623047 150
  endloop
endfacet
facet normal 0 0 -1
  outer loop
    vertex 129.4600067138672 85.01000213623047 10
    vertex 119.4599990844727 75.01000213623047 10
    vertex 119.4599990844727 85.01000213623047 10
  endloop
endfacet
facet normal 0 0 -1
  outer loop
    vertex 119.4599990844727 75.01000213623047 10
    vertex 129.4600067138672 85.01000213623047 10
    vertex 129.4600067138672 75.01000213623047 10
  endloop
endfacet
facet normal -1 0 0
  outer loop
    vertex 119.4599990844727 85.01000213623047 20
    vertex 119.4599990844727 75.01000213623047 10
    vertex 119.4599990844727 75.01000213623047 20
  endloop
endfacet
facet normal -1 0 0
  outer loop
    vertex 119.4599990844727 75.01000213623047 10
    vertex 119.4599990844727 85.01000213623047 20
    vertex 119.4599990844727 85.01000213623047 10
  endloop
endfacet
facet normal 0 1 0
  outer loop
    vertex 119.4599990844727 85.01000213623047 20
    vertex 129.4600067138672 85.01000213623047 10
    vertex 119.4599990844727 85.01000213623047 10
  endloop
endfacet
facet normal 0 1 0
  outer loop
    vertex 129.4600067138672 85.01000213623047 10
    vertex 119.4599990844727 85.01000213623047 20
    vertex 129.4600067138672 85.01000213623047 20
  endloop
endfacet
facet normal 1 0 0
  outer loop
    vertex 129.4600067138672 85.01000213623047 10
    vertex 129.4600067138672 75.01000213623047 20
    vertex 129.4600067138672 75.01000213623047 10
  endloop
endfacet
facet normal 1 0 0
  outer loop
    vertex 129.4600067138672 75.01000213623047 20
    vertex 129.4600067138672 85.01000213623047 10
    vertex 129.4600067138672 85.01000213623047 20
  endloop
endfacet
facet normal -0 -1 -0
  outer loop
    vertex 129.4600067138672 75.01000213623047 20
    vertex 119.4599990844727 75.01000213623047 10
    vertex 129.4600067138672 75.01000213623047 10
  endloop
endfacet
facet normal -0 -1 -0
  outer loop
    vertex 119.4599990844727 75.01000213623047 10
    vertex 129.4600067138672 75.01000213623047 20
    vertex 119.4599990844727 75.01000213623047 20
  endloop
endfacet
endsolid com.sketchup.SketchUp.2020
