solid OpenSCAD_Model
  facet normal 1 -0 0
    outer loop
      vertex 5.5 -5.5 34
      vertex 5.5 5.5 14
      vertex 5.5 5.5 34
    endloop
  endfacet
  facet normal 1 0 0
    outer loop
      vertex 5.5 5.5 14
      vertex 5.5 -5.5 34
      vertex 5.5 -5.5 14
    endloop
  endfacet
  facet normal -0 0 1
    outer loop
      vertex -5.5 5.5 34
      vertex 5.5 -5.5 34
      vertex 5.5 5.5 34
    endloop
  endfacet
  facet normal 0 0 1
    outer loop
      vertex 5.5 -5.5 34
      vertex -5.5 5.5 34
      vertex -5.5 -5.5 34
    endloop
  endfacet
  facet normal 0 0 -1
    outer loop
      vertex -5.5 -5.5 14
      vertex 5.5 5.5 14
      vertex 5.5 -5.5 14
    endloop
  endfacet
  facet normal -0 0 -1
    outer loop
      vertex 5.5 5.5 14
      vertex -5.5 -5.5 14
      vertex -5.5 5.5 14
    endloop
  endfacet
  facet normal -1 0 0
    outer loop
      vertex -5.5 -5.5 14
      vertex -5.5 5.5 34
      vertex -5.5 5.5 14
    endloop
  endfacet
  facet normal -1 -0 0
    outer loop
      vertex -5.5 5.5 34
      vertex -5.5 -5.5 14
      vertex -5.5 -5.5 34
    endloop
  endfacet
  facet normal 0 1 -0
    outer loop
      vertex 5.5 5.5 14
      vertex -5.5 5.5 34
      vertex 5.5 5.5 34
    endloop
  endfacet
  facet normal 0 1 0
    outer loop
      vertex -5.5 5.5 34
      vertex 5.5 5.5 14
      vertex -5.5 5.5 14
    endloop
  endfacet
  facet normal 0 -1 0
    outer loop
      vertex -5.5 -5.5 14
      vertex 5.5 -5.5 34
      vertex -5.5 -5.5 34
    endloop
  endfacet
  facet normal 0 -1 -0
    outer loop
      vertex 5.5 -5.5 34
      vertex -5.5 -5.5 14
      vertex 5.5 -5.5 14
    endloop
  endfacet
endsolid OpenSCAD_Model
