solid OpenSCAD_Model
  facet normal 1 -0 0
    outer loop
      vertex 72 -45 2.5
      vertex 72 45 -2.5
      vertex 72 45 2.5
    endloop
  endfacet
  facet normal 1 0 0
    outer loop
      vertex 72 45 -2.5
      vertex 72 -45 2.5
      vertex 72 -45 -2.5
    endloop
  endfacet
  facet normal 0 0 1
    outer loop
      vertex 72 45 2.5
      vertex 67.5 42.5 2.5
      vertex 72 -45 2.5
    endloop
  endfacet
  facet normal 0 0 1
    outer loop
      vertex 72 45 2.5
      vertex -67.5 42.5 2.5
      vertex 67.5 42.5 2.5
    endloop
  endfacet
  facet normal 0 0 1
    outer loop
      vertex -67.5 42.5 2.5
      vertex -72 45 2.5
      vertex -67.5 -42.5 2.5
    endloop
  endfacet
  facet normal -0 0 1
    outer loop
      vertex -72 45 2.5
      vertex -67.5 42.5 2.5
      vertex 72 45 2.5
    endloop
  endfacet
  facet normal -0 0 1
    outer loop
      vertex 67.5 -42.5 2.5
      vertex 72 -45 2.5
      vertex 67.5 42.5 2.5
    endloop
  endfacet
  facet normal -0 0 1
    outer loop
      vertex -67.5 -42.5 2.5
      vertex 72 -45 2.5
      vertex 67.5 -42.5 2.5
    endloop
  endfacet
  facet normal 0 0 1
    outer loop
      vertex -67.5 -42.5 2.5
      vertex -72 -45 2.5
      vertex 72 -45 2.5
    endloop
  endfacet
  facet normal 0 0 1
    outer loop
      vertex -72 -45 2.5
      vertex -67.5 -42.5 2.5
      vertex -72 45 2.5
    endloop
  endfacet
  facet normal 0 0 -1
    outer loop
      vertex 72 -45 -2.5
      vertex 65 38 -2.5
      vertex 72 45 -2.5
    endloop
  endfacet
  facet normal 0 0 -1
    outer loop
      vertex 72 -45 -2.5
      vertex -65 38 -2.5
      vertex 65 38 -2.5
    endloop
  endfacet
  facet normal 0 0 -1
    outer loop
      vertex -72 -45 -2.5
      vertex -65 38 -2.5
      vertex 72 -45 -2.5
    endloop
  endfacet
  facet normal 0 0 -1
    outer loop
      vertex -72 45 -2.5
      vertex -65 38 -2.5
      vertex -72 -45 -2.5
    endloop
  endfacet
  facet normal 0 0 -1
    outer loop
      vertex -65 38 -2.5
      vertex -72 45 -2.5
      vertex -65 45 -2.5
    endloop
  endfacet
  facet normal -0 0 -1
    outer loop
      vertex 72 45 -2.5
      vertex 65 38 -2.5
      vertex 65 45 -2.5
    endloop
  endfacet
  facet normal 0 0 1
    outer loop
      vertex 32.65 42.15 -2.5
      vertex 32.5 42 -2.5
      vertex 32.65 40.85 -2.5
    endloop
  endfacet
  facet normal 0 0 1
    outer loop
      vertex 32.65 42.15 -2.5
      vertex -32.5 42 -2.5
      vertex 32.5 42 -2.5
    endloop
  endfacet
  facet normal 0 0 1
    outer loop
      vertex -32.5 42 -2.5
      vertex -32.65 42.15 -2.5
      vertex -32.5 41 -2.5
    endloop
  endfacet
  facet normal -0 0 1
    outer loop
      vertex -32.65 42.15 -2.5
      vertex -32.5 42 -2.5
      vertex 32.65 42.15 -2.5
    endloop
  endfacet
  facet normal -0 0 1
    outer loop
      vertex 32.5 41 -2.5
      vertex 32.65 40.85 -2.5
      vertex 32.5 42 -2.5
    endloop
  endfacet
  facet normal -0 0 1
    outer loop
      vertex -32.5 41 -2.5
      vertex 32.65 40.85 -2.5
      vertex 32.5 41 -2.5
    endloop
  endfacet
  facet normal 0 0 1
    outer loop
      vertex -32.5 41 -2.5
      vertex -32.65 40.85 -2.5
      vertex 32.65 40.85 -2.5
    endloop
  endfacet
  facet normal 0 0 1
    outer loop
      vertex -32.65 40.85 -2.5
      vertex -32.5 41 -2.5
      vertex -32.65 42.15 -2.5
    endloop
  endfacet
  facet normal -1 0 0
    outer loop
      vertex -72 -45 -2.5
      vertex -72 45 2.5
      vertex -72 45 -2.5
    endloop
  endfacet
  facet normal -1 -0 0
    outer loop
      vertex -72 45 2.5
      vertex -72 -45 -2.5
      vertex -72 -45 2.5
    endloop
  endfacet
  facet normal 0 1 -0
    outer loop
      vertex 65 45 -10.5
      vertex -65 45 -2.5
      vertex 65 45 -2.5
    endloop
  endfacet
  facet normal 0 1 0
    outer loop
      vertex -65 45 -2.5
      vertex 65 45 -10.5
      vertex -65 45 -10.5
    endloop
  endfacet
  facet normal 0 1 0
    outer loop
      vertex 65 45 -2.5
      vertex 72 45 2.5
      vertex 72 45 -2.5
    endloop
  endfacet
  facet normal 0 1 0
    outer loop
      vertex 72 45 2.5
      vertex 65 45 -2.5
      vertex -72 45 2.5
    endloop
  endfacet
  facet normal 0 1 -0
    outer loop
      vertex -65 45 -2.5
      vertex -72 45 2.5
      vertex 65 45 -2.5
    endloop
  endfacet
  facet normal 0 1 0
    outer loop
      vertex -72 45 2.5
      vertex -65 45 -2.5
      vertex -72 45 -2.5
    endloop
  endfacet
  facet normal 0 -1 0
    outer loop
      vertex -72 -45 -2.5
      vertex 72 -45 2.5
      vertex -72 -45 2.5
    endloop
  endfacet
  facet normal 0 -1 -0
    outer loop
      vertex 72 -45 2.5
      vertex -72 -45 -2.5
      vertex 72 -45 -2.5
    endloop
  endfacet
  facet normal -1 0 0
    outer loop
      vertex 32.65 40.85 -2.5
      vertex 32.65 42.15 -0.349999
      vertex 32.65 42.15 -2.5
    endloop
  endfacet
  facet normal -1 -0 0
    outer loop
      vertex 32.65 42.15 -0.349999
      vertex 32.65 40.85 -2.5
      vertex 32.65 40.85 -0.349999
    endloop
  endfacet
  facet normal 0 0 -1
    outer loop
      vertex -32.65 40.85 -0.349999
      vertex 32.65 42.15 -0.349999
      vertex 32.65 40.85 -0.349999
    endloop
  endfacet
  facet normal -0 0 -1
    outer loop
      vertex 32.65 42.15 -0.349999
      vertex -32.65 40.85 -0.349999
      vertex -32.65 42.15 -0.349999
    endloop
  endfacet
  facet normal 1 -0 0
    outer loop
      vertex -32.65 40.85 -0.349999
      vertex -32.65 42.15 -2.5
      vertex -32.65 42.15 -0.349999
    endloop
  endfacet
  facet normal 1 0 0
    outer loop
      vertex -32.65 42.15 -2.5
      vertex -32.65 40.85 -0.349999
      vertex -32.65 40.85 -2.5
    endloop
  endfacet
  facet normal 0 -1 0
    outer loop
      vertex -32.65 42.15 -2.5
      vertex 32.65 42.15 -0.349999
      vertex -32.65 42.15 -0.349999
    endloop
  endfacet
  facet normal 0 -1 -0
    outer loop
      vertex 32.65 42.15 -0.349999
      vertex -32.65 42.15 -2.5
      vertex 32.65 42.15 -2.5
    endloop
  endfacet
  facet normal 0 1 -0
    outer loop
      vertex 32.65 40.85 -2.5
      vertex -32.65 40.85 -0.349999
      vertex 32.65 40.85 -0.349999
    endloop
  endfacet
  facet normal 0 1 0
    outer loop
      vertex -32.65 40.85 -0.349999
      vertex 32.65 40.85 -2.5
      vertex -32.65 40.85 -2.5
    endloop
  endfacet
  facet normal -1 0 0
    outer loop
      vertex 67.5 -42.5 0.25
      vertex 67.5 42.5 2.5
      vertex 67.5 42.5 0.25
    endloop
  endfacet
  facet normal -1 -0 0
    outer loop
      vertex 67.5 42.5 2.5
      vertex 67.5 -42.5 0.25
      vertex 67.5 -42.5 2.5
    endloop
  endfacet
  facet normal -0 0 1
    outer loop
      vertex -67.5 42.5 0.25
      vertex 67.5 -42.5 0.25
      vertex 67.5 42.5 0.25
    endloop
  endfacet
  facet normal 0 0 1
    outer loop
      vertex 67.5 -42.5 0.25
      vertex -67.5 42.5 0.25
      vertex -67.5 -42.5 0.25
    endloop
  endfacet
  facet normal 1 -0 0
    outer loop
      vertex -67.5 -42.5 2.5
      vertex -67.5 42.5 0.25
      vertex -67.5 42.5 2.5
    endloop
  endfacet
  facet normal 1 0 0
    outer loop
      vertex -67.5 42.5 0.25
      vertex -67.5 -42.5 2.5
      vertex -67.5 -42.5 0.25
    endloop
  endfacet
  facet normal 0 -1 0
    outer loop
      vertex -67.5 42.5 0.25
      vertex 67.5 42.5 2.5
      vertex -67.5 42.5 2.5
    endloop
  endfacet
  facet normal 0 -1 -0
    outer loop
      vertex 67.5 42.5 2.5
      vertex -67.5 42.5 0.25
      vertex 67.5 42.5 0.25
    endloop
  endfacet
  facet normal 0 1 -0
    outer loop
      vertex 67.5 -42.5 0.25
      vertex -67.5 -42.5 2.5
      vertex 67.5 -42.5 2.5
    endloop
  endfacet
  facet normal 0 1 0
    outer loop
      vertex -67.5 -42.5 2.5
      vertex 67.5 -42.5 0.25
      vertex -67.5 -42.5 0.25
    endloop
  endfacet
  facet normal 1 0 0
    outer loop
      vertex 65 38 -5.5
      vertex 65 45 -2.5
      vertex 65 38 -2.5
    endloop
  endfacet
  facet normal 1 0 0
    outer loop
      vertex 65 45 -2.5
      vertex 65 38 -5.5
      vertex 65 45 -10.5
    endloop
  endfacet
  facet normal 1 0 0
    outer loop
      vertex 65 -10 -10.5
      vertex 65 38 -5.5
      vertex 65 -10 -5.5
    endloop
  endfacet
  facet normal 1 0 0
    outer loop
      vertex 65 38 -5.5
      vertex 65 -10 -10.5
      vertex 65 45 -10.5
    endloop
  endfacet
  facet normal -0 0 1
    outer loop
      vertex -65 38 -5.5
      vertex 65 -10 -5.5
      vertex 65 38 -5.5
    endloop
  endfacet
  facet normal 0 0 1
    outer loop
      vertex 65 -10 -5.5
      vertex -65 38 -5.5
      vertex -65 -10 -5.5
    endloop
  endfacet
  facet normal 0 0 -1
    outer loop
      vertex -65 -10 -10.5
      vertex 65 45 -10.5
      vertex 65 -10 -10.5
    endloop
  endfacet
  facet normal -0 0 -1
    outer loop
      vertex 65 45 -10.5
      vertex -65 -10 -10.5
      vertex -65 45 -10.5
    endloop
  endfacet
  facet normal -1 0 0
    outer loop
      vertex -65 45 -10.5
      vertex -65 38 -5.5
      vertex -65 45 -2.5
    endloop
  endfacet
  facet normal -1 0 0
    outer loop
      vertex -65 -10 -10.5
      vertex -65 38 -5.5
      vertex -65 45 -10.5
    endloop
  endfacet
  facet normal -1 -0 0
    outer loop
      vertex -65 38 -5.5
      vertex -65 -10 -10.5
      vertex -65 -10 -5.5
    endloop
  endfacet
  facet normal -1 -0 0
    outer loop
      vertex -65 45 -2.5
      vertex -65 38 -5.5
      vertex -65 38 -2.5
    endloop
  endfacet
  facet normal 0 -1 0
    outer loop
      vertex -65 -10 -10.5
      vertex 65 -10 -5.5
      vertex -65 -10 -5.5
    endloop
  endfacet
  facet normal 0 -1 -0
    outer loop
      vertex 65 -10 -5.5
      vertex -65 -10 -10.5
      vertex 65 -10 -10.5
    endloop
  endfacet
  facet normal 0 -1 0
    outer loop
      vertex -65 38 -5.5
      vertex 65 38 -2.5
      vertex -65 38 -2.5
    endloop
  endfacet
  facet normal 0 -1 -0
    outer loop
      vertex 65 38 -2.5
      vertex -65 38 -5.5
      vertex 65 38 -5.5
    endloop
  endfacet
  facet normal 1 -0 0
    outer loop
      vertex 32.5 41 -0.5
      vertex 32.5 42 -2.5
      vertex 32.5 42 -0.5
    endloop
  endfacet
  facet normal 1 0 0
    outer loop
      vertex 32.5 42 -2.5
      vertex 32.5 41 -0.5
      vertex 32.5 41 -2.5
    endloop
  endfacet
  facet normal -0 0 1
    outer loop
      vertex -32.5 42 -0.5
      vertex 32.5 41 -0.5
      vertex 32.5 42 -0.5
    endloop
  endfacet
  facet normal 0 0 1
    outer loop
      vertex 32.5 41 -0.5
      vertex -32.5 42 -0.5
      vertex -32.5 41 -0.5
    endloop
  endfacet
  facet normal -1 0 0
    outer loop
      vertex -32.5 41 -2.5
      vertex -32.5 42 -0.5
      vertex -32.5 42 -2.5
    endloop
  endfacet
  facet normal -1 -0 0
    outer loop
      vertex -32.5 42 -0.5
      vertex -32.5 41 -2.5
      vertex -32.5 41 -0.5
    endloop
  endfacet
  facet normal 0 1 -0
    outer loop
      vertex 32.5 42 -2.5
      vertex -32.5 42 -0.5
      vertex 32.5 42 -0.5
    endloop
  endfacet
  facet normal 0 1 0
    outer loop
      vertex -32.5 42 -0.5
      vertex 32.5 42 -2.5
      vertex -32.5 42 -2.5
    endloop
  endfacet
  facet normal 0 -1 0
    outer loop
      vertex -32.5 41 -2.5
      vertex 32.5 41 -0.5
      vertex -32.5 41 -0.5
    endloop
  endfacet
  facet normal 0 -1 -0
    outer loop
      vertex 32.5 41 -0.5
      vertex -32.5 41 -2.5
      vertex 32.5 41 -2.5
    endloop
  endfacet
endsolid OpenSCAD_Model
